<?xml version="1.0" encoding="utf-8" standalone="no"?>
<!DOCTYPE svg PUBLIC "-//W3C//DTD SVG 1.1//EN"
  "http://www.w3.org/Graphics/SVG/1.1/DTD/svg11.dtd">
<!-- Created with matplotlib (https://matplotlib.org/) -->
<svg height="792pt" version="1.1" viewBox="0 0 1152 792" width="1152pt" xmlns="http://www.w3.org/2000/svg" xmlns:xlink="http://www.w3.org/1999/xlink">
 <defs>
  <style type="text/css">
*{stroke-linecap:butt;stroke-linejoin:round;}
  </style>
 </defs>
 <g id="figure_1">
  <g id="patch_1">
   <path d="M 0 792 
L 1152 792 
L 1152 0 
L 0 0 
z
" style="fill:#ffffff;"/>
  </g>
  <g id="axes_1">
   <g id="patch_2">
    <path d="M 144 366.84 
L 549.818182 366.84 
L 549.818182 95.04 
L 144 95.04 
z
" style="fill:#ffffff;"/>
   </g>
   <g id="matplotlib.axis_1">
    <g id="xtick_1">
     <g id="line2d_1">
      <defs>
       <path d="M 0 0 
L 0 3.5 
" id="mdf925a498d" style="stroke:#000000;stroke-width:0.8;"/>
      </defs>
      <g>
       <use style="stroke:#000000;stroke-width:0.8;" x="162.446281" xlink:href="#mdf925a498d" y="366.84"/>
      </g>
     </g>
     <g id="text_1">
      <!-- 27-01 -->
      <defs>
       <path d="M 19.1875 8.296875 
L 53.609375 8.296875 
L 53.609375 0 
L 7.328125 0 
L 7.328125 8.296875 
Q 12.9375 14.109375 22.625 23.890625 
Q 32.328125 33.6875 34.8125 36.53125 
Q 39.546875 41.84375 41.421875 45.53125 
Q 43.3125 49.21875 43.3125 52.78125 
Q 43.3125 58.59375 39.234375 62.25 
Q 35.15625 65.921875 28.609375 65.921875 
Q 23.96875 65.921875 18.8125 64.3125 
Q 13.671875 62.703125 7.8125 59.421875 
L 7.8125 69.390625 
Q 13.765625 71.78125 18.9375 73 
Q 24.125 74.21875 28.421875 74.21875 
Q 39.75 74.21875 46.484375 68.546875 
Q 53.21875 62.890625 53.21875 53.421875 
Q 53.21875 48.921875 51.53125 44.890625 
Q 49.859375 40.875 45.40625 35.40625 
Q 44.1875 33.984375 37.640625 27.21875 
Q 31.109375 20.453125 19.1875 8.296875 
z
" id="DejaVuSans-50"/>
       <path d="M 8.203125 72.90625 
L 55.078125 72.90625 
L 55.078125 68.703125 
L 28.609375 0 
L 18.3125 0 
L 43.21875 64.59375 
L 8.203125 64.59375 
z
" id="DejaVuSans-55"/>
       <path d="M 4.890625 31.390625 
L 31.203125 31.390625 
L 31.203125 23.390625 
L 4.890625 23.390625 
z
" id="DejaVuSans-45"/>
       <path d="M 31.78125 66.40625 
Q 24.171875 66.40625 20.328125 58.90625 
Q 16.5 51.421875 16.5 36.375 
Q 16.5 21.390625 20.328125 13.890625 
Q 24.171875 6.390625 31.78125 6.390625 
Q 39.453125 6.390625 43.28125 13.890625 
Q 47.125 21.390625 47.125 36.375 
Q 47.125 51.421875 43.28125 58.90625 
Q 39.453125 66.40625 31.78125 66.40625 
z
M 31.78125 74.21875 
Q 44.046875 74.21875 50.515625 64.515625 
Q 56.984375 54.828125 56.984375 36.375 
Q 56.984375 17.96875 50.515625 8.265625 
Q 44.046875 -1.421875 31.78125 -1.421875 
Q 19.53125 -1.421875 13.0625 8.265625 
Q 6.59375 17.96875 6.59375 36.375 
Q 6.59375 54.828125 13.0625 64.515625 
Q 19.53125 74.21875 31.78125 74.21875 
z
" id="DejaVuSans-48"/>
       <path d="M 12.40625 8.296875 
L 28.515625 8.296875 
L 28.515625 63.921875 
L 10.984375 60.40625 
L 10.984375 69.390625 
L 28.421875 72.90625 
L 38.28125 72.90625 
L 38.28125 8.296875 
L 54.390625 8.296875 
L 54.390625 0 
L 12.40625 0 
z
" id="DejaVuSans-49"/>
      </defs>
      <g transform="translate(147.917375 381.438437)scale(0.1 -0.1)">
       <use xlink:href="#DejaVuSans-50"/>
       <use x="63.623047" xlink:href="#DejaVuSans-55"/>
       <use x="127.246094" xlink:href="#DejaVuSans-45"/>
       <use x="163.330078" xlink:href="#DejaVuSans-48"/>
       <use x="226.953125" xlink:href="#DejaVuSans-49"/>
      </g>
     </g>
    </g>
    <g id="xtick_2">
     <g id="line2d_2">
      <g>
       <use style="stroke:#000000;stroke-width:0.8;" x="235.260548" xlink:href="#mdf925a498d" y="366.84"/>
      </g>
     </g>
     <g id="text_2">
      <!-- 27-03 -->
      <defs>
       <path d="M 40.578125 39.3125 
Q 47.65625 37.796875 51.625 33 
Q 55.609375 28.21875 55.609375 21.1875 
Q 55.609375 10.40625 48.1875 4.484375 
Q 40.765625 -1.421875 27.09375 -1.421875 
Q 22.515625 -1.421875 17.65625 -0.515625 
Q 12.796875 0.390625 7.625 2.203125 
L 7.625 11.71875 
Q 11.71875 9.328125 16.59375 8.109375 
Q 21.484375 6.890625 26.8125 6.890625 
Q 36.078125 6.890625 40.9375 10.546875 
Q 45.796875 14.203125 45.796875 21.1875 
Q 45.796875 27.640625 41.28125 31.265625 
Q 36.765625 34.90625 28.71875 34.90625 
L 20.21875 34.90625 
L 20.21875 43.015625 
L 29.109375 43.015625 
Q 36.375 43.015625 40.234375 45.921875 
Q 44.09375 48.828125 44.09375 54.296875 
Q 44.09375 59.90625 40.109375 62.90625 
Q 36.140625 65.921875 28.71875 65.921875 
Q 24.65625 65.921875 20.015625 65.03125 
Q 15.375 64.15625 9.8125 62.3125 
L 9.8125 71.09375 
Q 15.4375 72.65625 20.34375 73.4375 
Q 25.25 74.21875 29.59375 74.21875 
Q 40.828125 74.21875 47.359375 69.109375 
Q 53.90625 64.015625 53.90625 55.328125 
Q 53.90625 49.265625 50.4375 45.09375 
Q 46.96875 40.921875 40.578125 39.3125 
z
" id="DejaVuSans-51"/>
      </defs>
      <g transform="translate(220.731642 381.438437)scale(0.1 -0.1)">
       <use xlink:href="#DejaVuSans-50"/>
       <use x="63.623047" xlink:href="#DejaVuSans-55"/>
       <use x="127.246094" xlink:href="#DejaVuSans-45"/>
       <use x="163.330078" xlink:href="#DejaVuSans-48"/>
       <use x="226.953125" xlink:href="#DejaVuSans-51"/>
      </g>
     </g>
    </g>
    <g id="xtick_3">
     <g id="line2d_3">
      <g>
       <use style="stroke:#000000;stroke-width:0.8;" x="308.074815" xlink:href="#mdf925a498d" y="366.84"/>
      </g>
     </g>
     <g id="text_3">
      <!-- 26-05 -->
      <defs>
       <path d="M 33.015625 40.375 
Q 26.375 40.375 22.484375 35.828125 
Q 18.609375 31.296875 18.609375 23.390625 
Q 18.609375 15.53125 22.484375 10.953125 
Q 26.375 6.390625 33.015625 6.390625 
Q 39.65625 6.390625 43.53125 10.953125 
Q 47.40625 15.53125 47.40625 23.390625 
Q 47.40625 31.296875 43.53125 35.828125 
Q 39.65625 40.375 33.015625 40.375 
z
M 52.59375 71.296875 
L 52.59375 62.3125 
Q 48.875 64.0625 45.09375 64.984375 
Q 41.3125 65.921875 37.59375 65.921875 
Q 27.828125 65.921875 22.671875 59.328125 
Q 17.53125 52.734375 16.796875 39.40625 
Q 19.671875 43.65625 24.015625 45.921875 
Q 28.375 48.1875 33.59375 48.1875 
Q 44.578125 48.1875 50.953125 41.515625 
Q 57.328125 34.859375 57.328125 23.390625 
Q 57.328125 12.15625 50.6875 5.359375 
Q 44.046875 -1.421875 33.015625 -1.421875 
Q 20.359375 -1.421875 13.671875 8.265625 
Q 6.984375 17.96875 6.984375 36.375 
Q 6.984375 53.65625 15.1875 63.9375 
Q 23.390625 74.21875 37.203125 74.21875 
Q 40.921875 74.21875 44.703125 73.484375 
Q 48.484375 72.75 52.59375 71.296875 
z
" id="DejaVuSans-54"/>
       <path d="M 10.796875 72.90625 
L 49.515625 72.90625 
L 49.515625 64.59375 
L 19.828125 64.59375 
L 19.828125 46.734375 
Q 21.96875 47.46875 24.109375 47.828125 
Q 26.265625 48.1875 28.421875 48.1875 
Q 40.625 48.1875 47.75 41.5 
Q 54.890625 34.8125 54.890625 23.390625 
Q 54.890625 11.625 47.5625 5.09375 
Q 40.234375 -1.421875 26.90625 -1.421875 
Q 22.3125 -1.421875 17.546875 -0.640625 
Q 12.796875 0.140625 7.71875 1.703125 
L 7.71875 11.625 
Q 12.109375 9.234375 16.796875 8.0625 
Q 21.484375 6.890625 26.703125 6.890625 
Q 35.15625 6.890625 40.078125 11.328125 
Q 45.015625 15.765625 45.015625 23.390625 
Q 45.015625 31 40.078125 35.4375 
Q 35.15625 39.890625 26.703125 39.890625 
Q 22.75 39.890625 18.8125 39.015625 
Q 14.890625 38.140625 10.796875 36.28125 
z
" id="DejaVuSans-53"/>
      </defs>
      <g transform="translate(293.545909 381.438437)scale(0.1 -0.1)">
       <use xlink:href="#DejaVuSans-50"/>
       <use x="63.623047" xlink:href="#DejaVuSans-54"/>
       <use x="127.246094" xlink:href="#DejaVuSans-45"/>
       <use x="163.330078" xlink:href="#DejaVuSans-48"/>
       <use x="226.953125" xlink:href="#DejaVuSans-53"/>
      </g>
     </g>
    </g>
    <g id="xtick_4">
     <g id="line2d_4">
      <g>
       <use style="stroke:#000000;stroke-width:0.8;" x="380.889082" xlink:href="#mdf925a498d" y="366.84"/>
      </g>
     </g>
     <g id="text_4">
      <!-- 25-07 -->
      <g transform="translate(366.360176 381.438437)scale(0.1 -0.1)">
       <use xlink:href="#DejaVuSans-50"/>
       <use x="63.623047" xlink:href="#DejaVuSans-53"/>
       <use x="127.246094" xlink:href="#DejaVuSans-45"/>
       <use x="163.330078" xlink:href="#DejaVuSans-48"/>
       <use x="226.953125" xlink:href="#DejaVuSans-55"/>
      </g>
     </g>
    </g>
    <g id="xtick_5">
     <g id="line2d_5">
      <g>
       <use style="stroke:#000000;stroke-width:0.8;" x="453.703349" xlink:href="#mdf925a498d" y="366.84"/>
      </g>
     </g>
     <g id="text_5">
      <!-- 23-09 -->
      <defs>
       <path d="M 10.984375 1.515625 
L 10.984375 10.5 
Q 14.703125 8.734375 18.5 7.8125 
Q 22.3125 6.890625 25.984375 6.890625 
Q 35.75 6.890625 40.890625 13.453125 
Q 46.046875 20.015625 46.78125 33.40625 
Q 43.953125 29.203125 39.59375 26.953125 
Q 35.25 24.703125 29.984375 24.703125 
Q 19.046875 24.703125 12.671875 31.3125 
Q 6.296875 37.9375 6.296875 49.421875 
Q 6.296875 60.640625 12.9375 67.421875 
Q 19.578125 74.21875 30.609375 74.21875 
Q 43.265625 74.21875 49.921875 64.515625 
Q 56.59375 54.828125 56.59375 36.375 
Q 56.59375 19.140625 48.40625 8.859375 
Q 40.234375 -1.421875 26.421875 -1.421875 
Q 22.703125 -1.421875 18.890625 -0.6875 
Q 15.09375 0.046875 10.984375 1.515625 
z
M 30.609375 32.421875 
Q 37.25 32.421875 41.125 36.953125 
Q 45.015625 41.5 45.015625 49.421875 
Q 45.015625 57.28125 41.125 61.84375 
Q 37.25 66.40625 30.609375 66.40625 
Q 23.96875 66.40625 20.09375 61.84375 
Q 16.21875 57.28125 16.21875 49.421875 
Q 16.21875 41.5 20.09375 36.953125 
Q 23.96875 32.421875 30.609375 32.421875 
z
" id="DejaVuSans-57"/>
      </defs>
      <g transform="translate(439.174443 381.438437)scale(0.1 -0.1)">
       <use xlink:href="#DejaVuSans-50"/>
       <use x="63.623047" xlink:href="#DejaVuSans-51"/>
       <use x="127.246094" xlink:href="#DejaVuSans-45"/>
       <use x="163.330078" xlink:href="#DejaVuSans-48"/>
       <use x="226.953125" xlink:href="#DejaVuSans-57"/>
      </g>
     </g>
    </g>
    <g id="xtick_6">
     <g id="line2d_6">
      <g>
       <use style="stroke:#000000;stroke-width:0.8;" x="526.517616" xlink:href="#mdf925a498d" y="366.84"/>
      </g>
     </g>
     <g id="text_6">
      <!-- 26-11 -->
      <g transform="translate(511.98871 381.438437)scale(0.1 -0.1)">
       <use xlink:href="#DejaVuSans-50"/>
       <use x="63.623047" xlink:href="#DejaVuSans-54"/>
       <use x="127.246094" xlink:href="#DejaVuSans-45"/>
       <use x="163.330078" xlink:href="#DejaVuSans-49"/>
       <use x="226.953125" xlink:href="#DejaVuSans-49"/>
      </g>
     </g>
    </g>
    <g id="text_7">
     <!-- Data (2020) -->
     <defs>
      <path d="M 19.671875 64.796875 
L 19.671875 8.109375 
L 31.59375 8.109375 
Q 46.6875 8.109375 53.6875 14.9375 
Q 60.6875 21.78125 60.6875 36.53125 
Q 60.6875 51.171875 53.6875 57.984375 
Q 46.6875 64.796875 31.59375 64.796875 
z
M 9.8125 72.90625 
L 30.078125 72.90625 
Q 51.265625 72.90625 61.171875 64.09375 
Q 71.09375 55.28125 71.09375 36.53125 
Q 71.09375 17.671875 61.125 8.828125 
Q 51.171875 0 30.078125 0 
L 9.8125 0 
z
" id="DejaVuSans-68"/>
      <path d="M 34.28125 27.484375 
Q 23.390625 27.484375 19.1875 25 
Q 14.984375 22.515625 14.984375 16.5 
Q 14.984375 11.71875 18.140625 8.90625 
Q 21.296875 6.109375 26.703125 6.109375 
Q 34.1875 6.109375 38.703125 11.40625 
Q 43.21875 16.703125 43.21875 25.484375 
L 43.21875 27.484375 
z
M 52.203125 31.203125 
L 52.203125 0 
L 43.21875 0 
L 43.21875 8.296875 
Q 40.140625 3.328125 35.546875 0.953125 
Q 30.953125 -1.421875 24.3125 -1.421875 
Q 15.921875 -1.421875 10.953125 3.296875 
Q 6 8.015625 6 15.921875 
Q 6 25.140625 12.171875 29.828125 
Q 18.359375 34.515625 30.609375 34.515625 
L 43.21875 34.515625 
L 43.21875 35.40625 
Q 43.21875 41.609375 39.140625 45 
Q 35.0625 48.390625 27.6875 48.390625 
Q 23 48.390625 18.546875 47.265625 
Q 14.109375 46.140625 10.015625 43.890625 
L 10.015625 52.203125 
Q 14.9375 54.109375 19.578125 55.046875 
Q 24.21875 56 28.609375 56 
Q 40.484375 56 46.34375 49.84375 
Q 52.203125 43.703125 52.203125 31.203125 
z
" id="DejaVuSans-97"/>
      <path d="M 18.3125 70.21875 
L 18.3125 54.6875 
L 36.8125 54.6875 
L 36.8125 47.703125 
L 18.3125 47.703125 
L 18.3125 18.015625 
Q 18.3125 11.328125 20.140625 9.421875 
Q 21.96875 7.515625 27.59375 7.515625 
L 36.8125 7.515625 
L 36.8125 0 
L 27.59375 0 
Q 17.1875 0 13.234375 3.875 
Q 9.28125 7.765625 9.28125 18.015625 
L 9.28125 47.703125 
L 2.6875 47.703125 
L 2.6875 54.6875 
L 9.28125 54.6875 
L 9.28125 70.21875 
z
" id="DejaVuSans-116"/>
      <path id="DejaVuSans-32"/>
      <path d="M 31 75.875 
Q 24.46875 64.65625 21.28125 53.65625 
Q 18.109375 42.671875 18.109375 31.390625 
Q 18.109375 20.125 21.3125 9.0625 
Q 24.515625 -2 31 -13.1875 
L 23.1875 -13.1875 
Q 15.875 -1.703125 12.234375 9.375 
Q 8.59375 20.453125 8.59375 31.390625 
Q 8.59375 42.28125 12.203125 53.3125 
Q 15.828125 64.359375 23.1875 75.875 
z
" id="DejaVuSans-40"/>
      <path d="M 8.015625 75.875 
L 15.828125 75.875 
Q 23.140625 64.359375 26.78125 53.3125 
Q 30.421875 42.28125 30.421875 31.390625 
Q 30.421875 20.453125 26.78125 9.375 
Q 23.140625 -1.703125 15.828125 -13.1875 
L 8.015625 -13.1875 
Q 14.5 -2 17.703125 9.0625 
Q 20.90625 20.125 20.90625 31.390625 
Q 20.90625 42.671875 17.703125 53.65625 
Q 14.5 64.65625 8.015625 75.875 
z
" id="DejaVuSans-41"/>
     </defs>
     <g transform="translate(316.755185 395.116562)scale(0.1 -0.1)">
      <use xlink:href="#DejaVuSans-68"/>
      <use x="77.001953" xlink:href="#DejaVuSans-97"/>
      <use x="138.28125" xlink:href="#DejaVuSans-116"/>
      <use x="177.490234" xlink:href="#DejaVuSans-97"/>
      <use x="238.769531" xlink:href="#DejaVuSans-32"/>
      <use x="270.556641" xlink:href="#DejaVuSans-40"/>
      <use x="309.570312" xlink:href="#DejaVuSans-50"/>
      <use x="373.193359" xlink:href="#DejaVuSans-48"/>
      <use x="436.816406" xlink:href="#DejaVuSans-50"/>
      <use x="500.439453" xlink:href="#DejaVuSans-48"/>
      <use x="564.0625" xlink:href="#DejaVuSans-41"/>
     </g>
    </g>
   </g>
   <g id="matplotlib.axis_2">
    <g id="ytick_1">
     <g id="line2d_7">
      <defs>
       <path d="M 0 0 
L -3.5 0 
" id="m85ea307268" style="stroke:#000000;stroke-width:0.8;"/>
      </defs>
      <g>
       <use style="stroke:#000000;stroke-width:0.8;" x="144" xlink:href="#m85ea307268" y="354.485697"/>
      </g>
     </g>
     <g id="text_8">
      <!-- 0.0 -->
      <defs>
       <path d="M 10.6875 12.40625 
L 21 12.40625 
L 21 0 
L 10.6875 0 
z
" id="DejaVuSans-46"/>
      </defs>
      <g transform="translate(121.096875 358.284916)scale(0.1 -0.1)">
       <use xlink:href="#DejaVuSans-48"/>
       <use x="63.623047" xlink:href="#DejaVuSans-46"/>
       <use x="95.410156" xlink:href="#DejaVuSans-48"/>
      </g>
     </g>
    </g>
    <g id="ytick_2">
     <g id="line2d_8">
      <g>
       <use style="stroke:#000000;stroke-width:0.8;" x="144" xlink:href="#m85ea307268" y="305.933159"/>
      </g>
     </g>
     <g id="text_9">
      <!-- 0.2 -->
      <g transform="translate(121.096875 309.732377)scale(0.1 -0.1)">
       <use xlink:href="#DejaVuSans-48"/>
       <use x="63.623047" xlink:href="#DejaVuSans-46"/>
       <use x="95.410156" xlink:href="#DejaVuSans-50"/>
      </g>
     </g>
    </g>
    <g id="ytick_3">
     <g id="line2d_9">
      <g>
       <use style="stroke:#000000;stroke-width:0.8;" x="144" xlink:href="#m85ea307268" y="257.38062"/>
      </g>
     </g>
     <g id="text_10">
      <!-- 0.4 -->
      <defs>
       <path d="M 37.796875 64.3125 
L 12.890625 25.390625 
L 37.796875 25.390625 
z
M 35.203125 72.90625 
L 47.609375 72.90625 
L 47.609375 25.390625 
L 58.015625 25.390625 
L 58.015625 17.1875 
L 47.609375 17.1875 
L 47.609375 0 
L 37.796875 0 
L 37.796875 17.1875 
L 4.890625 17.1875 
L 4.890625 26.703125 
z
" id="DejaVuSans-52"/>
      </defs>
      <g transform="translate(121.096875 261.179839)scale(0.1 -0.1)">
       <use xlink:href="#DejaVuSans-48"/>
       <use x="63.623047" xlink:href="#DejaVuSans-46"/>
       <use x="95.410156" xlink:href="#DejaVuSans-52"/>
      </g>
     </g>
    </g>
    <g id="ytick_4">
     <g id="line2d_10">
      <g>
       <use style="stroke:#000000;stroke-width:0.8;" x="144" xlink:href="#m85ea307268" y="208.828081"/>
      </g>
     </g>
     <g id="text_11">
      <!-- 0.6 -->
      <g transform="translate(121.096875 212.6273)scale(0.1 -0.1)">
       <use xlink:href="#DejaVuSans-48"/>
       <use x="63.623047" xlink:href="#DejaVuSans-46"/>
       <use x="95.410156" xlink:href="#DejaVuSans-54"/>
      </g>
     </g>
    </g>
    <g id="ytick_5">
     <g id="line2d_11">
      <g>
       <use style="stroke:#000000;stroke-width:0.8;" x="144" xlink:href="#m85ea307268" y="160.275543"/>
      </g>
     </g>
     <g id="text_12">
      <!-- 0.8 -->
      <defs>
       <path d="M 31.78125 34.625 
Q 24.75 34.625 20.71875 30.859375 
Q 16.703125 27.09375 16.703125 20.515625 
Q 16.703125 13.921875 20.71875 10.15625 
Q 24.75 6.390625 31.78125 6.390625 
Q 38.8125 6.390625 42.859375 10.171875 
Q 46.921875 13.96875 46.921875 20.515625 
Q 46.921875 27.09375 42.890625 30.859375 
Q 38.875 34.625 31.78125 34.625 
z
M 21.921875 38.8125 
Q 15.578125 40.375 12.03125 44.71875 
Q 8.5 49.078125 8.5 55.328125 
Q 8.5 64.0625 14.71875 69.140625 
Q 20.953125 74.21875 31.78125 74.21875 
Q 42.671875 74.21875 48.875 69.140625 
Q 55.078125 64.0625 55.078125 55.328125 
Q 55.078125 49.078125 51.53125 44.71875 
Q 48 40.375 41.703125 38.8125 
Q 48.828125 37.15625 52.796875 32.3125 
Q 56.78125 27.484375 56.78125 20.515625 
Q 56.78125 9.90625 50.3125 4.234375 
Q 43.84375 -1.421875 31.78125 -1.421875 
Q 19.734375 -1.421875 13.25 4.234375 
Q 6.78125 9.90625 6.78125 20.515625 
Q 6.78125 27.484375 10.78125 32.3125 
Q 14.796875 37.15625 21.921875 38.8125 
z
M 18.3125 54.390625 
Q 18.3125 48.734375 21.84375 45.5625 
Q 25.390625 42.390625 31.78125 42.390625 
Q 38.140625 42.390625 41.71875 45.5625 
Q 45.3125 48.734375 45.3125 54.390625 
Q 45.3125 60.0625 41.71875 63.234375 
Q 38.140625 66.40625 31.78125 66.40625 
Q 25.390625 66.40625 21.84375 63.234375 
Q 18.3125 60.0625 18.3125 54.390625 
z
" id="DejaVuSans-56"/>
      </defs>
      <g transform="translate(121.096875 164.074762)scale(0.1 -0.1)">
       <use xlink:href="#DejaVuSans-48"/>
       <use x="63.623047" xlink:href="#DejaVuSans-46"/>
       <use x="95.410156" xlink:href="#DejaVuSans-56"/>
      </g>
     </g>
    </g>
    <g id="ytick_6">
     <g id="line2d_12">
      <g>
       <use style="stroke:#000000;stroke-width:0.8;" x="144" xlink:href="#m85ea307268" y="111.723004"/>
      </g>
     </g>
     <g id="text_13">
      <!-- 1.0 -->
      <g transform="translate(121.096875 115.522223)scale(0.1 -0.1)">
       <use xlink:href="#DejaVuSans-49"/>
       <use x="63.623047" xlink:href="#DejaVuSans-46"/>
       <use x="95.410156" xlink:href="#DejaVuSans-48"/>
      </g>
     </g>
    </g>
    <g id="text_14">
     <!-- Número de indivíduos -->
     <defs>
      <path d="M 9.8125 72.90625 
L 23.09375 72.90625 
L 55.421875 11.921875 
L 55.421875 72.90625 
L 64.984375 72.90625 
L 64.984375 0 
L 51.703125 0 
L 19.390625 60.984375 
L 19.390625 0 
L 9.8125 0 
z
" id="DejaVuSans-78"/>
      <path d="M 8.5 21.578125 
L 8.5 54.6875 
L 17.484375 54.6875 
L 17.484375 21.921875 
Q 17.484375 14.15625 20.5 10.265625 
Q 23.53125 6.390625 29.59375 6.390625 
Q 36.859375 6.390625 41.078125 11.03125 
Q 45.3125 15.671875 45.3125 23.6875 
L 45.3125 54.6875 
L 54.296875 54.6875 
L 54.296875 0 
L 45.3125 0 
L 45.3125 8.40625 
Q 42.046875 3.421875 37.71875 1 
Q 33.40625 -1.421875 27.6875 -1.421875 
Q 18.265625 -1.421875 13.375 4.4375 
Q 8.5 10.296875 8.5 21.578125 
z
M 31.109375 56 
z
M 37.78125 79.984375 
L 47.5 79.984375 
L 31.59375 61.625 
L 24.109375 61.625 
z
" id="DejaVuSans-250"/>
      <path d="M 52 44.1875 
Q 55.375 50.25 60.0625 53.125 
Q 64.75 56 71.09375 56 
Q 79.640625 56 84.28125 50.015625 
Q 88.921875 44.046875 88.921875 33.015625 
L 88.921875 0 
L 79.890625 0 
L 79.890625 32.71875 
Q 79.890625 40.578125 77.09375 44.375 
Q 74.3125 48.1875 68.609375 48.1875 
Q 61.625 48.1875 57.5625 43.546875 
Q 53.515625 38.921875 53.515625 30.90625 
L 53.515625 0 
L 44.484375 0 
L 44.484375 32.71875 
Q 44.484375 40.625 41.703125 44.40625 
Q 38.921875 48.1875 33.109375 48.1875 
Q 26.21875 48.1875 22.15625 43.53125 
Q 18.109375 38.875 18.109375 30.90625 
L 18.109375 0 
L 9.078125 0 
L 9.078125 54.6875 
L 18.109375 54.6875 
L 18.109375 46.1875 
Q 21.1875 51.21875 25.484375 53.609375 
Q 29.78125 56 35.6875 56 
Q 41.65625 56 45.828125 52.96875 
Q 50 49.953125 52 44.1875 
z
" id="DejaVuSans-109"/>
      <path d="M 56.203125 29.59375 
L 56.203125 25.203125 
L 14.890625 25.203125 
Q 15.484375 15.921875 20.484375 11.0625 
Q 25.484375 6.203125 34.421875 6.203125 
Q 39.59375 6.203125 44.453125 7.46875 
Q 49.3125 8.734375 54.109375 11.28125 
L 54.109375 2.78125 
Q 49.265625 0.734375 44.1875 -0.34375 
Q 39.109375 -1.421875 33.890625 -1.421875 
Q 20.796875 -1.421875 13.15625 6.1875 
Q 5.515625 13.8125 5.515625 26.8125 
Q 5.515625 40.234375 12.765625 48.109375 
Q 20.015625 56 32.328125 56 
Q 43.359375 56 49.78125 48.890625 
Q 56.203125 41.796875 56.203125 29.59375 
z
M 47.21875 32.234375 
Q 47.125 39.59375 43.09375 43.984375 
Q 39.0625 48.390625 32.421875 48.390625 
Q 24.90625 48.390625 20.390625 44.140625 
Q 15.875 39.890625 15.1875 32.171875 
z
" id="DejaVuSans-101"/>
      <path d="M 41.109375 46.296875 
Q 39.59375 47.171875 37.8125 47.578125 
Q 36.03125 48 33.890625 48 
Q 26.265625 48 22.1875 43.046875 
Q 18.109375 38.09375 18.109375 28.8125 
L 18.109375 0 
L 9.078125 0 
L 9.078125 54.6875 
L 18.109375 54.6875 
L 18.109375 46.1875 
Q 20.953125 51.171875 25.484375 53.578125 
Q 30.03125 56 36.53125 56 
Q 37.453125 56 38.578125 55.875 
Q 39.703125 55.765625 41.0625 55.515625 
z
" id="DejaVuSans-114"/>
      <path d="M 30.609375 48.390625 
Q 23.390625 48.390625 19.1875 42.75 
Q 14.984375 37.109375 14.984375 27.296875 
Q 14.984375 17.484375 19.15625 11.84375 
Q 23.34375 6.203125 30.609375 6.203125 
Q 37.796875 6.203125 41.984375 11.859375 
Q 46.1875 17.53125 46.1875 27.296875 
Q 46.1875 37.015625 41.984375 42.703125 
Q 37.796875 48.390625 30.609375 48.390625 
z
M 30.609375 56 
Q 42.328125 56 49.015625 48.375 
Q 55.71875 40.765625 55.71875 27.296875 
Q 55.71875 13.875 49.015625 6.21875 
Q 42.328125 -1.421875 30.609375 -1.421875 
Q 18.84375 -1.421875 12.171875 6.21875 
Q 5.515625 13.875 5.515625 27.296875 
Q 5.515625 40.765625 12.171875 48.375 
Q 18.84375 56 30.609375 56 
z
" id="DejaVuSans-111"/>
      <path d="M 45.40625 46.390625 
L 45.40625 75.984375 
L 54.390625 75.984375 
L 54.390625 0 
L 45.40625 0 
L 45.40625 8.203125 
Q 42.578125 3.328125 38.25 0.953125 
Q 33.9375 -1.421875 27.875 -1.421875 
Q 17.96875 -1.421875 11.734375 6.484375 
Q 5.515625 14.40625 5.515625 27.296875 
Q 5.515625 40.1875 11.734375 48.09375 
Q 17.96875 56 27.875 56 
Q 33.9375 56 38.25 53.625 
Q 42.578125 51.265625 45.40625 46.390625 
z
M 14.796875 27.296875 
Q 14.796875 17.390625 18.875 11.75 
Q 22.953125 6.109375 30.078125 6.109375 
Q 37.203125 6.109375 41.296875 11.75 
Q 45.40625 17.390625 45.40625 27.296875 
Q 45.40625 37.203125 41.296875 42.84375 
Q 37.203125 48.484375 30.078125 48.484375 
Q 22.953125 48.484375 18.875 42.84375 
Q 14.796875 37.203125 14.796875 27.296875 
z
" id="DejaVuSans-100"/>
      <path d="M 9.421875 54.6875 
L 18.40625 54.6875 
L 18.40625 0 
L 9.421875 0 
z
M 9.421875 75.984375 
L 18.40625 75.984375 
L 18.40625 64.59375 
L 9.421875 64.59375 
z
" id="DejaVuSans-105"/>
      <path d="M 54.890625 33.015625 
L 54.890625 0 
L 45.90625 0 
L 45.90625 32.71875 
Q 45.90625 40.484375 42.875 44.328125 
Q 39.84375 48.1875 33.796875 48.1875 
Q 26.515625 48.1875 22.3125 43.546875 
Q 18.109375 38.921875 18.109375 30.90625 
L 18.109375 0 
L 9.078125 0 
L 9.078125 54.6875 
L 18.109375 54.6875 
L 18.109375 46.1875 
Q 21.34375 51.125 25.703125 53.5625 
Q 30.078125 56 35.796875 56 
Q 45.21875 56 50.046875 50.171875 
Q 54.890625 44.34375 54.890625 33.015625 
z
" id="DejaVuSans-110"/>
      <path d="M 2.984375 54.6875 
L 12.5 54.6875 
L 29.59375 8.796875 
L 46.6875 54.6875 
L 56.203125 54.6875 
L 35.6875 0 
L 23.484375 0 
z
" id="DejaVuSans-118"/>
      <path d="M 20.65625 79.984375 
L 30.375 79.984375 
L 14.46875 61.625 
L 6.984375 61.625 
z
M 9.421875 54.6875 
L 18.40625 54.6875 
L 18.40625 0 
L 9.421875 0 
z
M 13.921875 56 
z
" id="DejaVuSans-237"/>
      <path d="M 8.5 21.578125 
L 8.5 54.6875 
L 17.484375 54.6875 
L 17.484375 21.921875 
Q 17.484375 14.15625 20.5 10.265625 
Q 23.53125 6.390625 29.59375 6.390625 
Q 36.859375 6.390625 41.078125 11.03125 
Q 45.3125 15.671875 45.3125 23.6875 
L 45.3125 54.6875 
L 54.296875 54.6875 
L 54.296875 0 
L 45.3125 0 
L 45.3125 8.40625 
Q 42.046875 3.421875 37.71875 1 
Q 33.40625 -1.421875 27.6875 -1.421875 
Q 18.265625 -1.421875 13.375 4.4375 
Q 8.5 10.296875 8.5 21.578125 
z
M 31.109375 56 
z
" id="DejaVuSans-117"/>
      <path d="M 44.28125 53.078125 
L 44.28125 44.578125 
Q 40.484375 46.53125 36.375 47.5 
Q 32.28125 48.484375 27.875 48.484375 
Q 21.1875 48.484375 17.84375 46.4375 
Q 14.5 44.390625 14.5 40.28125 
Q 14.5 37.15625 16.890625 35.375 
Q 19.28125 33.59375 26.515625 31.984375 
L 29.59375 31.296875 
Q 39.15625 29.25 43.1875 25.515625 
Q 47.21875 21.78125 47.21875 15.09375 
Q 47.21875 7.46875 41.1875 3.015625 
Q 35.15625 -1.421875 24.609375 -1.421875 
Q 20.21875 -1.421875 15.453125 -0.5625 
Q 10.6875 0.296875 5.421875 2 
L 5.421875 11.28125 
Q 10.40625 8.6875 15.234375 7.390625 
Q 20.0625 6.109375 24.8125 6.109375 
Q 31.15625 6.109375 34.5625 8.28125 
Q 37.984375 10.453125 37.984375 14.40625 
Q 37.984375 18.0625 35.515625 20.015625 
Q 33.0625 21.96875 24.703125 23.78125 
L 21.578125 24.515625 
Q 13.234375 26.265625 9.515625 29.90625 
Q 5.8125 33.546875 5.8125 39.890625 
Q 5.8125 47.609375 11.28125 51.796875 
Q 16.75 56 26.8125 56 
Q 31.78125 56 36.171875 55.265625 
Q 40.578125 54.546875 44.28125 53.078125 
z
" id="DejaVuSans-115"/>
     </defs>
     <g transform="translate(115.017187 285.704062)rotate(-90)scale(0.1 -0.1)">
      <use xlink:href="#DejaVuSans-78"/>
      <use x="74.804688" xlink:href="#DejaVuSans-250"/>
      <use x="138.183594" xlink:href="#DejaVuSans-109"/>
      <use x="235.595703" xlink:href="#DejaVuSans-101"/>
      <use x="297.119141" xlink:href="#DejaVuSans-114"/>
      <use x="335.982422" xlink:href="#DejaVuSans-111"/>
      <use x="397.164062" xlink:href="#DejaVuSans-32"/>
      <use x="428.951172" xlink:href="#DejaVuSans-100"/>
      <use x="492.427734" xlink:href="#DejaVuSans-101"/>
      <use x="553.951172" xlink:href="#DejaVuSans-32"/>
      <use x="585.738281" xlink:href="#DejaVuSans-105"/>
      <use x="613.521484" xlink:href="#DejaVuSans-110"/>
      <use x="676.900391" xlink:href="#DejaVuSans-100"/>
      <use x="740.376953" xlink:href="#DejaVuSans-105"/>
      <use x="768.160156" xlink:href="#DejaVuSans-118"/>
      <use x="827.339844" xlink:href="#DejaVuSans-237"/>
      <use x="855.123047" xlink:href="#DejaVuSans-100"/>
      <use x="918.599609" xlink:href="#DejaVuSans-117"/>
      <use x="981.978516" xlink:href="#DejaVuSans-111"/>
      <use x="1043.160156" xlink:href="#DejaVuSans-115"/>
     </g>
    </g>
    <g id="text_15">
     <!-- 1e6 -->
     <g transform="translate(144 92.04)scale(0.1 -0.1)">
      <use xlink:href="#DejaVuSans-49"/>
      <use x="63.623047" xlink:href="#DejaVuSans-101"/>
      <use x="125.146484" xlink:href="#DejaVuSans-54"/>
     </g>
    </g>
   </g>
   <g id="line2d_13">
    <path clip-path="url(#p1b73c9481d)" d="M 162.446281 354.485455 
L 208.561983 354.368686 
L 217.056981 353.981236 
L 218.270552 353.593544 
L 220.697695 353.078888 
L 221.911266 352.720327 
L 223.124837 352.238443 
L 225.551979 350.766573 
L 226.76555 349.667343 
L 229.192692 348.447461 
L 232.833406 345.425065 
L 236.474119 340.479504 
L 238.901261 338.248515 
L 240.114833 337.053394 
L 241.328404 335.581281 
L 243.755546 332.355693 
L 244.969117 331.158145 
L 246.182688 330.179568 
L 247.396259 329.390347 
L 248.60983 328.349137 
L 249.823401 326.981655 
L 251.036973 325.795759 
L 252.250544 324.827136 
L 255.891257 322.909068 
L 257.104828 322.596633 
L 260.745542 320.159781 
L 264.386255 318.783802 
L 265.599826 318.486175 
L 269.240539 316.857723 
L 271.667682 316.185027 
L 274.094824 315.66503 
L 276.521966 314.913193 
L 278.949108 314.437864 
L 283.803393 313.662237 
L 286.230535 313.073295 
L 292.298391 312.221198 
L 294.725533 311.945662 
L 298.366246 311.625701 
L 299.579817 311.327831 
L 303.220531 310.858814 
L 309.288386 310.418442 
L 312.9291 310.014242 
L 320.210526 309.593049 
L 323.85124 309.305375 
L 326.278382 309.205114 
L 332.346237 308.92351 
L 348.122662 307.2215 
L 356.61766 306.534482 
L 360.258373 306.248993 
L 369.966942 305.581153 
L 372.394084 305.344216 
L 376.034798 305.03081 
L 385.743367 303.858509 
L 388.170509 303.408669 
L 393.024793 302.818999 
L 395.451936 302.282251 
L 397.879078 301.829741 
L 399.092649 301.736277 
L 406.374076 299.988386 
L 407.587647 299.862392 
L 411.22836 298.72165 
L 413.655502 297.91495 
L 416.082645 297.559302 
L 420.936929 296.084033 
L 422.1505 295.706537 
L 424.577642 295.42032 
L 429.431927 294.076629 
L 430.645498 293.726322 
L 433.07264 293.37553 
L 434.286211 292.914767 
L 436.713354 292.233332 
L 439.140496 291.431729 
L 442.781209 290.585216 
L 446.421923 289.17088 
L 447.635494 288.637045 
L 448.849065 288.22799 
L 450.062636 287.977216 
L 453.703349 286.748837 
L 456.130492 285.611008 
L 458.557634 284.973271 
L 463.411918 282.739854 
L 464.625489 282.051622 
L 467.052632 281.275024 
L 468.266203 280.522459 
L 469.479774 279.92672 
L 470.693345 278.953241 
L 473.120487 276.681468 
L 475.547629 275.270046 
L 476.761201 273.682135 
L 477.974772 272.598442 
L 480.401914 269.007254 
L 481.615485 267.139195 
L 482.829056 265.958883 
L 484.042627 264.986133 
L 486.469769 260.878588 
L 487.683341 257.885081 
L 488.896912 256.440157 
L 490.110483 253.168687 
L 492.537625 248.228952 
L 494.964767 241.984853 
L 496.178338 238.051612 
L 498.605481 228.798712 
L 499.819052 225.386925 
L 501.032623 222.338796 
L 502.246194 216.208553 
L 503.459765 214.379822 
L 504.673336 206.737652 
L 507.100478 195.720838 
L 509.527621 188.770057 
L 510.741192 187.186758 
L 511.954763 180.742137 
L 513.168334 175.30401 
L 514.381905 169.298547 
L 515.595476 163.894406 
L 516.809047 160.340361 
L 518.022619 159.560364 
L 519.23619 156.020884 
L 520.449761 149.652976 
L 524.090474 132.57195 
L 525.304045 129.204346 
L 526.517616 128.141773 
L 527.731187 124.632639 
L 528.944759 120.658613 
L 530.15833 112.723429 
L 531.371901 107.394545 
L 531.371901 107.394545 
" style="fill:none;stroke:#1f77b4;stroke-linecap:square;stroke-width:1.5;"/>
   </g>
   <g id="patch_3">
    <path d="M 144 366.84 
L 144 95.04 
" style="fill:none;stroke:#000000;stroke-linecap:square;stroke-linejoin:miter;stroke-width:0.8;"/>
   </g>
   <g id="patch_4">
    <path d="M 549.818182 366.84 
L 549.818182 95.04 
" style="fill:none;stroke:#000000;stroke-linecap:square;stroke-linejoin:miter;stroke-width:0.8;"/>
   </g>
   <g id="patch_5">
    <path d="M 144 366.84 
L 549.818182 366.84 
" style="fill:none;stroke:#000000;stroke-linecap:square;stroke-linejoin:miter;stroke-width:0.8;"/>
   </g>
   <g id="patch_6">
    <path d="M 144 95.04 
L 549.818182 95.04 
" style="fill:none;stroke:#000000;stroke-linecap:square;stroke-linejoin:miter;stroke-width:0.8;"/>
   </g>
   <g id="text_16">
    <!-- Curva de casos acumulados -->
    <defs>
     <path d="M 64.40625 67.28125 
L 64.40625 56.890625 
Q 59.421875 61.53125 53.78125 63.8125 
Q 48.140625 66.109375 41.796875 66.109375 
Q 29.296875 66.109375 22.65625 58.46875 
Q 16.015625 50.828125 16.015625 36.375 
Q 16.015625 21.96875 22.65625 14.328125 
Q 29.296875 6.6875 41.796875 6.6875 
Q 48.140625 6.6875 53.78125 8.984375 
Q 59.421875 11.28125 64.40625 15.921875 
L 64.40625 5.609375 
Q 59.234375 2.09375 53.4375 0.328125 
Q 47.65625 -1.421875 41.21875 -1.421875 
Q 24.65625 -1.421875 15.125 8.703125 
Q 5.609375 18.84375 5.609375 36.375 
Q 5.609375 53.953125 15.125 64.078125 
Q 24.65625 74.21875 41.21875 74.21875 
Q 47.75 74.21875 53.53125 72.484375 
Q 59.328125 70.75 64.40625 67.28125 
z
" id="DejaVuSans-67"/>
     <path d="M 48.78125 52.59375 
L 48.78125 44.1875 
Q 44.96875 46.296875 41.140625 47.34375 
Q 37.3125 48.390625 33.40625 48.390625 
Q 24.65625 48.390625 19.8125 42.84375 
Q 14.984375 37.3125 14.984375 27.296875 
Q 14.984375 17.28125 19.8125 11.734375 
Q 24.65625 6.203125 33.40625 6.203125 
Q 37.3125 6.203125 41.140625 7.25 
Q 44.96875 8.296875 48.78125 10.40625 
L 48.78125 2.09375 
Q 45.015625 0.34375 40.984375 -0.53125 
Q 36.96875 -1.421875 32.421875 -1.421875 
Q 20.0625 -1.421875 12.78125 6.34375 
Q 5.515625 14.109375 5.515625 27.296875 
Q 5.515625 40.671875 12.859375 48.328125 
Q 20.21875 56 33.015625 56 
Q 37.15625 56 41.109375 55.140625 
Q 45.0625 54.296875 48.78125 52.59375 
z
" id="DejaVuSans-99"/>
     <path d="M 9.421875 75.984375 
L 18.40625 75.984375 
L 18.40625 0 
L 9.421875 0 
z
" id="DejaVuSans-108"/>
    </defs>
    <g transform="translate(262.727216 89.04)scale(0.12 -0.12)">
     <use xlink:href="#DejaVuSans-67"/>
     <use x="69.824219" xlink:href="#DejaVuSans-117"/>
     <use x="133.203125" xlink:href="#DejaVuSans-114"/>
     <use x="174.316406" xlink:href="#DejaVuSans-118"/>
     <use x="233.496094" xlink:href="#DejaVuSans-97"/>
     <use x="294.775391" xlink:href="#DejaVuSans-32"/>
     <use x="326.5625" xlink:href="#DejaVuSans-100"/>
     <use x="390.039062" xlink:href="#DejaVuSans-101"/>
     <use x="451.5625" xlink:href="#DejaVuSans-32"/>
     <use x="483.349609" xlink:href="#DejaVuSans-99"/>
     <use x="538.330078" xlink:href="#DejaVuSans-97"/>
     <use x="599.609375" xlink:href="#DejaVuSans-115"/>
     <use x="651.708984" xlink:href="#DejaVuSans-111"/>
     <use x="712.890625" xlink:href="#DejaVuSans-115"/>
     <use x="764.990234" xlink:href="#DejaVuSans-32"/>
     <use x="796.777344" xlink:href="#DejaVuSans-97"/>
     <use x="858.056641" xlink:href="#DejaVuSans-99"/>
     <use x="913.037109" xlink:href="#DejaVuSans-117"/>
     <use x="976.416016" xlink:href="#DejaVuSans-109"/>
     <use x="1073.828125" xlink:href="#DejaVuSans-117"/>
     <use x="1137.207031" xlink:href="#DejaVuSans-108"/>
     <use x="1164.990234" xlink:href="#DejaVuSans-97"/>
     <use x="1226.269531" xlink:href="#DejaVuSans-100"/>
     <use x="1289.746094" xlink:href="#DejaVuSans-111"/>
     <use x="1350.927734" xlink:href="#DejaVuSans-115"/>
    </g>
   </g>
  </g>
  <g id="axes_2">
   <g id="patch_7">
    <path d="M 630.981818 366.84 
L 1036.8 366.84 
L 1036.8 95.04 
L 630.981818 95.04 
z
" style="fill:#ffffff;"/>
   </g>
   <g id="matplotlib.axis_3">
    <g id="xtick_7">
     <g id="line2d_14">
      <g>
       <use style="stroke:#000000;stroke-width:0.8;" x="648.210523" xlink:href="#mdf925a498d" y="366.84"/>
      </g>
     </g>
     <g id="text_17">
      <!-- 27-01 -->
      <g transform="translate(633.681617 381.438437)scale(0.1 -0.1)">
       <use xlink:href="#DejaVuSans-50"/>
       <use x="63.623047" xlink:href="#DejaVuSans-55"/>
       <use x="127.246094" xlink:href="#DejaVuSans-45"/>
       <use x="163.330078" xlink:href="#DejaVuSans-48"/>
       <use x="226.953125" xlink:href="#DejaVuSans-49"/>
      </g>
     </g>
    </g>
    <g id="xtick_8">
     <g id="line2d_15">
      <g>
       <use style="stroke:#000000;stroke-width:0.8;" x="721.265101" xlink:href="#mdf925a498d" y="366.84"/>
      </g>
     </g>
     <g id="text_18">
      <!-- 27-03 -->
      <g transform="translate(706.736195 381.438437)scale(0.1 -0.1)">
       <use xlink:href="#DejaVuSans-50"/>
       <use x="63.623047" xlink:href="#DejaVuSans-55"/>
       <use x="127.246094" xlink:href="#DejaVuSans-45"/>
       <use x="163.330078" xlink:href="#DejaVuSans-48"/>
       <use x="226.953125" xlink:href="#DejaVuSans-51"/>
      </g>
     </g>
    </g>
    <g id="xtick_9">
     <g id="line2d_16">
      <g>
       <use style="stroke:#000000;stroke-width:0.8;" x="794.319679" xlink:href="#mdf925a498d" y="366.84"/>
      </g>
     </g>
     <g id="text_19">
      <!-- 26-05 -->
      <g transform="translate(779.790773 381.438437)scale(0.1 -0.1)">
       <use xlink:href="#DejaVuSans-50"/>
       <use x="63.623047" xlink:href="#DejaVuSans-54"/>
       <use x="127.246094" xlink:href="#DejaVuSans-45"/>
       <use x="163.330078" xlink:href="#DejaVuSans-48"/>
       <use x="226.953125" xlink:href="#DejaVuSans-53"/>
      </g>
     </g>
    </g>
    <g id="xtick_10">
     <g id="line2d_17">
      <g>
       <use style="stroke:#000000;stroke-width:0.8;" x="867.374257" xlink:href="#mdf925a498d" y="366.84"/>
      </g>
     </g>
     <g id="text_20">
      <!-- 25-07 -->
      <g transform="translate(852.845351 381.438437)scale(0.1 -0.1)">
       <use xlink:href="#DejaVuSans-50"/>
       <use x="63.623047" xlink:href="#DejaVuSans-53"/>
       <use x="127.246094" xlink:href="#DejaVuSans-45"/>
       <use x="163.330078" xlink:href="#DejaVuSans-48"/>
       <use x="226.953125" xlink:href="#DejaVuSans-55"/>
      </g>
     </g>
    </g>
    <g id="xtick_11">
     <g id="line2d_18">
      <g>
       <use style="stroke:#000000;stroke-width:0.8;" x="940.428836" xlink:href="#mdf925a498d" y="366.84"/>
      </g>
     </g>
     <g id="text_21">
      <!-- 23-09 -->
      <g transform="translate(925.899929 381.438437)scale(0.1 -0.1)">
       <use xlink:href="#DejaVuSans-50"/>
       <use x="63.623047" xlink:href="#DejaVuSans-51"/>
       <use x="127.246094" xlink:href="#DejaVuSans-45"/>
       <use x="163.330078" xlink:href="#DejaVuSans-48"/>
       <use x="226.953125" xlink:href="#DejaVuSans-57"/>
      </g>
     </g>
    </g>
    <g id="xtick_12">
     <g id="line2d_19">
      <g>
       <use style="stroke:#000000;stroke-width:0.8;" x="1013.483414" xlink:href="#mdf925a498d" y="366.84"/>
      </g>
     </g>
     <g id="text_22">
      <!-- 26-11 -->
      <g transform="translate(998.954508 381.438437)scale(0.1 -0.1)">
       <use xlink:href="#DejaVuSans-50"/>
       <use x="63.623047" xlink:href="#DejaVuSans-54"/>
       <use x="127.246094" xlink:href="#DejaVuSans-45"/>
       <use x="163.330078" xlink:href="#DejaVuSans-49"/>
       <use x="226.953125" xlink:href="#DejaVuSans-49"/>
      </g>
     </g>
    </g>
    <g id="text_23">
     <!-- Data (2020) -->
     <g transform="translate(803.737003 395.116562)scale(0.1 -0.1)">
      <use xlink:href="#DejaVuSans-68"/>
      <use x="77.001953" xlink:href="#DejaVuSans-97"/>
      <use x="138.28125" xlink:href="#DejaVuSans-116"/>
      <use x="177.490234" xlink:href="#DejaVuSans-97"/>
      <use x="238.769531" xlink:href="#DejaVuSans-32"/>
      <use x="270.556641" xlink:href="#DejaVuSans-40"/>
      <use x="309.570312" xlink:href="#DejaVuSans-50"/>
      <use x="373.193359" xlink:href="#DejaVuSans-48"/>
      <use x="436.816406" xlink:href="#DejaVuSans-50"/>
      <use x="500.439453" xlink:href="#DejaVuSans-48"/>
      <use x="564.0625" xlink:href="#DejaVuSans-41"/>
     </g>
    </g>
   </g>
   <g id="matplotlib.axis_4">
    <g id="ytick_7">
     <g id="line2d_20">
      <g>
       <use style="stroke:#000000;stroke-width:0.8;" x="630.981818" xlink:href="#m85ea307268" y="354.485455"/>
      </g>
     </g>
     <g id="text_24">
      <!-- 0 -->
      <g transform="translate(617.619318 358.284673)scale(0.1 -0.1)">
       <use xlink:href="#DejaVuSans-48"/>
      </g>
     </g>
    </g>
    <g id="ytick_8">
     <g id="line2d_21">
      <g>
       <use style="stroke:#000000;stroke-width:0.8;" x="630.981818" xlink:href="#m85ea307268" y="323.278551"/>
      </g>
     </g>
     <g id="text_25">
      <!-- 2500 -->
      <g transform="translate(598.531818 327.07777)scale(0.1 -0.1)">
       <use xlink:href="#DejaVuSans-50"/>
       <use x="63.623047" xlink:href="#DejaVuSans-53"/>
       <use x="127.246094" xlink:href="#DejaVuSans-48"/>
       <use x="190.869141" xlink:href="#DejaVuSans-48"/>
      </g>
     </g>
    </g>
    <g id="ytick_9">
     <g id="line2d_22">
      <g>
       <use style="stroke:#000000;stroke-width:0.8;" x="630.981818" xlink:href="#m85ea307268" y="292.071647"/>
      </g>
     </g>
     <g id="text_26">
      <!-- 5000 -->
      <g transform="translate(598.531818 295.870866)scale(0.1 -0.1)">
       <use xlink:href="#DejaVuSans-53"/>
       <use x="63.623047" xlink:href="#DejaVuSans-48"/>
       <use x="127.246094" xlink:href="#DejaVuSans-48"/>
       <use x="190.869141" xlink:href="#DejaVuSans-48"/>
      </g>
     </g>
    </g>
    <g id="ytick_10">
     <g id="line2d_23">
      <g>
       <use style="stroke:#000000;stroke-width:0.8;" x="630.981818" xlink:href="#m85ea307268" y="260.864743"/>
      </g>
     </g>
     <g id="text_27">
      <!-- 7500 -->
      <g transform="translate(598.531818 264.663962)scale(0.1 -0.1)">
       <use xlink:href="#DejaVuSans-55"/>
       <use x="63.623047" xlink:href="#DejaVuSans-53"/>
       <use x="127.246094" xlink:href="#DejaVuSans-48"/>
       <use x="190.869141" xlink:href="#DejaVuSans-48"/>
      </g>
     </g>
    </g>
    <g id="ytick_11">
     <g id="line2d_24">
      <g>
       <use style="stroke:#000000;stroke-width:0.8;" x="630.981818" xlink:href="#m85ea307268" y="229.657839"/>
      </g>
     </g>
     <g id="text_28">
      <!-- 10000 -->
      <g transform="translate(592.169318 233.457058)scale(0.1 -0.1)">
       <use xlink:href="#DejaVuSans-49"/>
       <use x="63.623047" xlink:href="#DejaVuSans-48"/>
       <use x="127.246094" xlink:href="#DejaVuSans-48"/>
       <use x="190.869141" xlink:href="#DejaVuSans-48"/>
       <use x="254.492188" xlink:href="#DejaVuSans-48"/>
      </g>
     </g>
    </g>
    <g id="ytick_12">
     <g id="line2d_25">
      <g>
       <use style="stroke:#000000;stroke-width:0.8;" x="630.981818" xlink:href="#m85ea307268" y="198.450936"/>
      </g>
     </g>
     <g id="text_29">
      <!-- 12500 -->
      <g transform="translate(592.169318 202.250154)scale(0.1 -0.1)">
       <use xlink:href="#DejaVuSans-49"/>
       <use x="63.623047" xlink:href="#DejaVuSans-50"/>
       <use x="127.246094" xlink:href="#DejaVuSans-53"/>
       <use x="190.869141" xlink:href="#DejaVuSans-48"/>
       <use x="254.492188" xlink:href="#DejaVuSans-48"/>
      </g>
     </g>
    </g>
    <g id="ytick_13">
     <g id="line2d_26">
      <g>
       <use style="stroke:#000000;stroke-width:0.8;" x="630.981818" xlink:href="#m85ea307268" y="167.244032"/>
      </g>
     </g>
     <g id="text_30">
      <!-- 15000 -->
      <g transform="translate(592.169318 171.043251)scale(0.1 -0.1)">
       <use xlink:href="#DejaVuSans-49"/>
       <use x="63.623047" xlink:href="#DejaVuSans-53"/>
       <use x="127.246094" xlink:href="#DejaVuSans-48"/>
       <use x="190.869141" xlink:href="#DejaVuSans-48"/>
       <use x="254.492188" xlink:href="#DejaVuSans-48"/>
      </g>
     </g>
    </g>
    <g id="ytick_14">
     <g id="line2d_27">
      <g>
       <use style="stroke:#000000;stroke-width:0.8;" x="630.981818" xlink:href="#m85ea307268" y="136.037128"/>
      </g>
     </g>
     <g id="text_31">
      <!-- 17500 -->
      <g transform="translate(592.169318 139.836347)scale(0.1 -0.1)">
       <use xlink:href="#DejaVuSans-49"/>
       <use x="63.623047" xlink:href="#DejaVuSans-55"/>
       <use x="127.246094" xlink:href="#DejaVuSans-53"/>
       <use x="190.869141" xlink:href="#DejaVuSans-48"/>
       <use x="254.492188" xlink:href="#DejaVuSans-48"/>
      </g>
     </g>
    </g>
    <g id="ytick_15">
     <g id="line2d_28">
      <g>
       <use style="stroke:#000000;stroke-width:0.8;" x="630.981818" xlink:href="#m85ea307268" y="104.830224"/>
      </g>
     </g>
     <g id="text_32">
      <!-- 20000 -->
      <g transform="translate(592.169318 108.629443)scale(0.1 -0.1)">
       <use xlink:href="#DejaVuSans-50"/>
       <use x="63.623047" xlink:href="#DejaVuSans-48"/>
       <use x="127.246094" xlink:href="#DejaVuSans-48"/>
       <use x="190.869141" xlink:href="#DejaVuSans-48"/>
       <use x="254.492188" xlink:href="#DejaVuSans-48"/>
      </g>
     </g>
    </g>
    <g id="text_33">
     <!-- Número de indivíduos -->
     <g transform="translate(586.089631 285.704062)rotate(-90)scale(0.1 -0.1)">
      <use xlink:href="#DejaVuSans-78"/>
      <use x="74.804688" xlink:href="#DejaVuSans-250"/>
      <use x="138.183594" xlink:href="#DejaVuSans-109"/>
      <use x="235.595703" xlink:href="#DejaVuSans-101"/>
      <use x="297.119141" xlink:href="#DejaVuSans-114"/>
      <use x="335.982422" xlink:href="#DejaVuSans-111"/>
      <use x="397.164062" xlink:href="#DejaVuSans-32"/>
      <use x="428.951172" xlink:href="#DejaVuSans-100"/>
      <use x="492.427734" xlink:href="#DejaVuSans-101"/>
      <use x="553.951172" xlink:href="#DejaVuSans-32"/>
      <use x="585.738281" xlink:href="#DejaVuSans-105"/>
      <use x="613.521484" xlink:href="#DejaVuSans-110"/>
      <use x="676.900391" xlink:href="#DejaVuSans-100"/>
      <use x="740.376953" xlink:href="#DejaVuSans-105"/>
      <use x="768.160156" xlink:href="#DejaVuSans-118"/>
      <use x="827.339844" xlink:href="#DejaVuSans-237"/>
      <use x="855.123047" xlink:href="#DejaVuSans-100"/>
      <use x="918.599609" xlink:href="#DejaVuSans-117"/>
      <use x="981.978516" xlink:href="#DejaVuSans-111"/>
      <use x="1043.160156" xlink:href="#DejaVuSans-115"/>
     </g>
    </g>
   </g>
   <g id="line2d_29">
    <path clip-path="url(#p4c0d727b10)" d="M 649.428099 354.478327 
L 688.390541 354.37311 
L 693.260846 354.066396 
L 695.695999 353.376274 
L 696.913575 353.201515 
L 698.131151 352.862696 
L 699.348728 352.671884 
L 700.566304 352.236772 
L 701.78388 351.550221 
L 703.001457 351.639385 
L 704.219033 349.12678 
L 705.436609 347.734066 
L 706.654185 346.006089 
L 707.871762 343.614754 
L 709.089338 340.576088 
L 711.524491 330.87164 
L 712.742067 325.64492 
L 715.17722 320.464574 
L 716.394796 315.639101 
L 717.612372 312.170678 
L 718.829948 309.911298 
L 720.047525 303.452355 
L 721.265101 299.163641 
L 722.482677 291.212121 
L 723.700254 288.109256 
L 724.91783 287.026826 
L 726.135406 285.256059 
L 727.352983 282.176387 
L 728.570559 281.628931 
L 729.788135 282.641807 
L 731.005711 286.013938 
L 732.223288 286.671966 
L 733.440864 289.416389 
L 734.65844 290.546965 
L 735.876017 291.315554 
L 737.093593 294.948037 
L 739.528746 303.09928 
L 741.963898 306.876202 
L 743.181475 312.229522 
L 744.399051 316.22222 
L 745.616627 319.68173 
L 746.834203 320.200664 
L 748.05178 321.612988 
L 749.269356 323.581707 
L 750.486932 324.182665 
L 751.704509 324.291439 
L 752.922085 326.140673 
L 754.139661 326.968093 
L 755.357238 330.229664 
L 756.574814 330.998252 
L 757.79239 332.041449 
L 759.009966 333.633888 
L 760.227543 333.762285 
L 761.445119 335.064063 
L 762.662695 336.866923 
L 763.880272 338.297098 
L 766.315424 340.40847 
L 767.533001 341.300088 
L 768.750577 341.833289 
L 769.968153 342.674977 
L 771.185729 343.035192 
L 772.403306 342.874701 
L 774.838458 343.402547 
L 776.056035 343.02985 
L 778.491187 343.900073 
L 779.708764 345.483598 
L 780.92634 346.202256 
L 782.143916 346.589222 
L 783.361493 346.478649 
L 784.579069 347.397031 
L 785.796645 346.270012 
L 787.014221 346.683729 
L 788.231798 346.384142 
L 789.449374 346.501842 
L 791.884527 347.425567 
L 793.102103 347.265063 
L 794.319679 348.383169 
L 795.537256 349.044756 
L 796.754832 348.823636 
L 799.189984 348.773705 
L 801.625137 349.146403 
L 802.842713 349.708127 
L 804.06029 349.85435 
L 806.495442 350.915385 
L 807.713019 350.453523 
L 808.930595 350.312642 
L 811.365747 349.800849 
L 813.8009 350.528419 
L 815.018476 350.380411 
L 816.236053 351.245292 
L 817.453629 351.332671 
L 818.671205 351.680403 
L 819.888782 351.371892 
L 821.106358 350.772719 
L 822.323934 348.911015 
L 823.541511 349.005522 
L 827.194239 347.199092 
L 828.411816 346.945867 
L 829.629392 346.876325 
L 830.846968 348.147782 
L 832.064545 347.821445 
L 833.282121 347.730496 
L 834.499697 348.384954 
L 835.717274 348.647092 
L 836.93485 349.246265 
L 838.152426 349.096472 
L 839.370002 349.137478 
L 840.587579 349.592212 
L 841.805155 349.59934 
L 843.022731 349.438849 
L 844.240308 349.096472 
L 846.67546 349.481652 
L 847.893037 349.793721 
L 851.545765 350.21278 
L 852.763342 350.71209 
L 853.980918 350.717446 
L 855.198494 350.57835 
L 857.633647 349.647498 
L 858.851223 349.640358 
L 860.0688 349.463814 
L 861.286376 348.877125 
L 866.156681 348.104978 
L 867.374257 347.616366 
L 868.591834 347.473713 
L 869.80941 347.732281 
L 871.026986 347.37028 
L 872.244563 346.87097 
L 873.462139 346.186203 
L 874.679715 345.968641 
L 875.897292 346.05602 
L 877.114868 346.366304 
L 878.332444 345.570978 
L 879.55002 345.353428 
L 880.767597 344.558089 
L 881.985173 344.670434 
L 883.202749 344.147943 
L 884.420326 343.967842 
L 885.637902 343.664685 
L 888.073055 342.516271 
L 889.290631 342.455643 
L 890.508207 341.571151 
L 891.725783 340.941658 
L 892.94336 340.959496 
L 894.160936 340.720539 
L 895.378512 339.877054 
L 896.596089 339.185159 
L 897.813665 338.709029 
L 902.68397 337.567743 
L 903.901547 337.683658 
L 905.119123 337.610546 
L 906.336699 337.894079 
L 907.554275 337.938668 
L 909.989428 338.482554 
L 913.642157 339.449082 
L 914.859733 339.504356 
L 917.294886 339.939467 
L 918.512462 339.82178 
L 919.730038 339.465122 
L 920.947615 338.750047 
L 923.382767 338.39696 
L 924.600344 337.885167 
L 925.81792 337.630156 
L 928.253073 336.636891 
L 929.470649 337.373374 
L 930.688225 336.551296 
L 931.905801 335.875442 
L 933.123378 335.049795 
L 935.55853 332.881364 
L 939.211259 332.376699 
L 940.428836 332.808253 
L 942.863988 332.257226 
L 944.081565 332.918813 
L 945.299141 332.419502 
L 946.516717 331.176569 
L 947.734293 331.197977 
L 948.95187 329.719656 
L 950.169446 329.175769 
L 951.387022 328.339424 
L 952.604599 327.734897 
L 953.822175 327.319395 
L 955.039751 325.878535 
L 956.257328 324.78361 
L 957.474904 321.987471 
L 958.69248 318.10356 
L 959.910056 315.038143 
L 962.345209 310.374945 
L 963.562785 304.238769 
L 964.780362 300.654432 
L 965.997938 295.014009 
L 967.215514 289.992381 
L 968.433091 284.391179 
L 969.650667 281.013705 
L 970.868243 278.943352 
L 972.085819 275.633635 
L 973.303396 268.395418 
L 974.520972 259.197408 
L 975.738548 262.171863 
L 979.391277 231.392943 
L 980.608854 223.96927 
L 981.82643 215.698542 
L 983.044006 208.795575 
L 984.261583 186.003837 
L 985.479159 175.471957 
L 986.696735 169.059387 
L 987.914311 164.305228 
L 989.131888 141.672209 
L 990.349464 151.708349 
L 991.56704 124.463823 
L 992.784617 117.637538 
L 994.002193 111.506717 
L 995.219769 111.385459 
L 996.437346 107.900984 
L 997.654922 141.301283 
L 998.872498 107.394545 
L 1000.090074 123.584687 
L 1001.307651 119.702548 
L 1002.525227 120.699384 
L 1003.742803 119.77566 
L 1004.96038 139.921052 
L 1006.177956 125.551608 
L 1007.395532 126.115118 
L 1008.613109 123.750521 
L 1009.830685 124.993454 
L 1011.048261 124.401409 
L 1012.265837 125.770943 
L 1013.483414 123.695247 
L 1014.70099 123.918152 
L 1015.918566 141.502793 
L 1017.136143 125.524858 
L 1018.353719 129.251861 
L 1018.353719 129.251861 
" style="fill:none;stroke:#1f77b4;stroke-linecap:square;stroke-width:1.5;"/>
   </g>
   <g id="patch_8">
    <path d="M 630.981818 366.84 
L 630.981818 95.04 
" style="fill:none;stroke:#000000;stroke-linecap:square;stroke-linejoin:miter;stroke-width:0.8;"/>
   </g>
   <g id="patch_9">
    <path d="M 1036.8 366.84 
L 1036.8 95.04 
" style="fill:none;stroke:#000000;stroke-linecap:square;stroke-linejoin:miter;stroke-width:0.8;"/>
   </g>
   <g id="patch_10">
    <path d="M 630.981818 366.84 
L 1036.8 366.84 
" style="fill:none;stroke:#000000;stroke-linecap:square;stroke-linejoin:miter;stroke-width:0.8;"/>
   </g>
   <g id="patch_11">
    <path d="M 630.981818 95.04 
L 1036.8 95.04 
" style="fill:none;stroke:#000000;stroke-linecap:square;stroke-linejoin:miter;stroke-width:0.8;"/>
   </g>
   <g id="text_34">
    <!-- Novos casos -->
    <g transform="translate(796.577472 89.04)scale(0.12 -0.12)">
     <use xlink:href="#DejaVuSans-78"/>
     <use x="74.804688" xlink:href="#DejaVuSans-111"/>
     <use x="135.986328" xlink:href="#DejaVuSans-118"/>
     <use x="195.166016" xlink:href="#DejaVuSans-111"/>
     <use x="256.347656" xlink:href="#DejaVuSans-115"/>
     <use x="308.447266" xlink:href="#DejaVuSans-32"/>
     <use x="340.234375" xlink:href="#DejaVuSans-99"/>
     <use x="395.214844" xlink:href="#DejaVuSans-97"/>
     <use x="456.494141" xlink:href="#DejaVuSans-115"/>
     <use x="508.59375" xlink:href="#DejaVuSans-111"/>
     <use x="569.775391" xlink:href="#DejaVuSans-115"/>
    </g>
   </g>
  </g>
  <g id="axes_3">
   <g id="patch_12">
    <path d="M 144 693 
L 549.818182 693 
L 549.818182 421.2 
L 144 421.2 
z
" style="fill:#ffffff;"/>
   </g>
   <g id="matplotlib.axis_5">
    <g id="xtick_13">
     <g id="line2d_30">
      <g>
       <use style="stroke:#000000;stroke-width:0.8;" x="173.711185" xlink:href="#mdf925a498d" y="693"/>
      </g>
     </g>
     <g id="text_35">
      <!-- 27-01 -->
      <g transform="translate(159.182279 707.598437)scale(0.1 -0.1)">
       <use xlink:href="#DejaVuSans-50"/>
       <use x="63.623047" xlink:href="#DejaVuSans-55"/>
       <use x="127.246094" xlink:href="#DejaVuSans-45"/>
       <use x="163.330078" xlink:href="#DejaVuSans-48"/>
       <use x="226.953125" xlink:href="#DejaVuSans-49"/>
      </g>
     </g>
    </g>
    <g id="xtick_14">
     <g id="line2d_31">
      <g>
       <use style="stroke:#000000;stroke-width:0.8;" x="244.116838" xlink:href="#mdf925a498d" y="693"/>
      </g>
     </g>
     <g id="text_36">
      <!-- 27-03 -->
      <g transform="translate(229.587932 707.598437)scale(0.1 -0.1)">
       <use xlink:href="#DejaVuSans-50"/>
       <use x="63.623047" xlink:href="#DejaVuSans-55"/>
       <use x="127.246094" xlink:href="#DejaVuSans-45"/>
       <use x="163.330078" xlink:href="#DejaVuSans-48"/>
       <use x="226.953125" xlink:href="#DejaVuSans-51"/>
      </g>
     </g>
    </g>
    <g id="xtick_15">
     <g id="line2d_32">
      <g>
       <use style="stroke:#000000;stroke-width:0.8;" x="314.522491" xlink:href="#mdf925a498d" y="693"/>
      </g>
     </g>
     <g id="text_37">
      <!-- 26-05 -->
      <g transform="translate(299.993584 707.598437)scale(0.1 -0.1)">
       <use xlink:href="#DejaVuSans-50"/>
       <use x="63.623047" xlink:href="#DejaVuSans-54"/>
       <use x="127.246094" xlink:href="#DejaVuSans-45"/>
       <use x="163.330078" xlink:href="#DejaVuSans-48"/>
       <use x="226.953125" xlink:href="#DejaVuSans-53"/>
      </g>
     </g>
    </g>
    <g id="xtick_16">
     <g id="line2d_33">
      <g>
       <use style="stroke:#000000;stroke-width:0.8;" x="384.928143" xlink:href="#mdf925a498d" y="693"/>
      </g>
     </g>
     <g id="text_38">
      <!-- 25-07 -->
      <g transform="translate(370.399237 707.598437)scale(0.1 -0.1)">
       <use xlink:href="#DejaVuSans-50"/>
       <use x="63.623047" xlink:href="#DejaVuSans-53"/>
       <use x="127.246094" xlink:href="#DejaVuSans-45"/>
       <use x="163.330078" xlink:href="#DejaVuSans-48"/>
       <use x="226.953125" xlink:href="#DejaVuSans-55"/>
      </g>
     </g>
    </g>
    <g id="xtick_17">
     <g id="line2d_34">
      <g>
       <use style="stroke:#000000;stroke-width:0.8;" x="455.333796" xlink:href="#mdf925a498d" y="693"/>
      </g>
     </g>
     <g id="text_39">
      <!-- 23-09 -->
      <g transform="translate(440.80489 707.598437)scale(0.1 -0.1)">
       <use xlink:href="#DejaVuSans-50"/>
       <use x="63.623047" xlink:href="#DejaVuSans-51"/>
       <use x="127.246094" xlink:href="#DejaVuSans-45"/>
       <use x="163.330078" xlink:href="#DejaVuSans-48"/>
       <use x="226.953125" xlink:href="#DejaVuSans-57"/>
      </g>
     </g>
    </g>
    <g id="xtick_18">
     <g id="line2d_35">
      <g>
       <use style="stroke:#000000;stroke-width:0.8;" x="525.739449" xlink:href="#mdf925a498d" y="693"/>
      </g>
     </g>
     <g id="text_40">
      <!-- 26-11 -->
      <g transform="translate(511.210542 707.598437)scale(0.1 -0.1)">
       <use xlink:href="#DejaVuSans-50"/>
       <use x="63.623047" xlink:href="#DejaVuSans-54"/>
       <use x="127.246094" xlink:href="#DejaVuSans-45"/>
       <use x="163.330078" xlink:href="#DejaVuSans-49"/>
       <use x="226.953125" xlink:href="#DejaVuSans-49"/>
      </g>
     </g>
    </g>
    <g id="text_41">
     <!-- Data (2020) -->
     <g transform="translate(316.755185 721.276562)scale(0.1 -0.1)">
      <use xlink:href="#DejaVuSans-68"/>
      <use x="77.001953" xlink:href="#DejaVuSans-97"/>
      <use x="138.28125" xlink:href="#DejaVuSans-116"/>
      <use x="177.490234" xlink:href="#DejaVuSans-97"/>
      <use x="238.769531" xlink:href="#DejaVuSans-32"/>
      <use x="270.556641" xlink:href="#DejaVuSans-40"/>
      <use x="309.570312" xlink:href="#DejaVuSans-50"/>
      <use x="373.193359" xlink:href="#DejaVuSans-48"/>
      <use x="436.816406" xlink:href="#DejaVuSans-50"/>
      <use x="500.439453" xlink:href="#DejaVuSans-48"/>
      <use x="564.0625" xlink:href="#DejaVuSans-41"/>
     </g>
    </g>
   </g>
   <g id="matplotlib.axis_6">
    <g id="ytick_16">
     <g id="line2d_36">
      <g>
       <use style="stroke:#000000;stroke-width:0.8;" x="144" xlink:href="#m85ea307268" y="680.677056"/>
      </g>
     </g>
     <g id="text_42">
      <!-- 0 -->
      <g transform="translate(130.6375 684.476275)scale(0.1 -0.1)">
       <use xlink:href="#DejaVuSans-48"/>
      </g>
     </g>
    </g>
    <g id="ytick_17">
     <g id="line2d_37">
      <g>
       <use style="stroke:#000000;stroke-width:0.8;" x="144" xlink:href="#m85ea307268" y="649.075712"/>
      </g>
     </g>
     <g id="text_43">
      <!-- 2000 -->
      <g transform="translate(111.55 652.874931)scale(0.1 -0.1)">
       <use xlink:href="#DejaVuSans-50"/>
       <use x="63.623047" xlink:href="#DejaVuSans-48"/>
       <use x="127.246094" xlink:href="#DejaVuSans-48"/>
       <use x="190.869141" xlink:href="#DejaVuSans-48"/>
      </g>
     </g>
    </g>
    <g id="ytick_18">
     <g id="line2d_38">
      <g>
       <use style="stroke:#000000;stroke-width:0.8;" x="144" xlink:href="#m85ea307268" y="617.474368"/>
      </g>
     </g>
     <g id="text_44">
      <!-- 4000 -->
      <g transform="translate(111.55 621.273587)scale(0.1 -0.1)">
       <use xlink:href="#DejaVuSans-52"/>
       <use x="63.623047" xlink:href="#DejaVuSans-48"/>
       <use x="127.246094" xlink:href="#DejaVuSans-48"/>
       <use x="190.869141" xlink:href="#DejaVuSans-48"/>
      </g>
     </g>
    </g>
    <g id="ytick_19">
     <g id="line2d_39">
      <g>
       <use style="stroke:#000000;stroke-width:0.8;" x="144" xlink:href="#m85ea307268" y="585.873024"/>
      </g>
     </g>
     <g id="text_45">
      <!-- 6000 -->
      <g transform="translate(111.55 589.672243)scale(0.1 -0.1)">
       <use xlink:href="#DejaVuSans-54"/>
       <use x="63.623047" xlink:href="#DejaVuSans-48"/>
       <use x="127.246094" xlink:href="#DejaVuSans-48"/>
       <use x="190.869141" xlink:href="#DejaVuSans-48"/>
      </g>
     </g>
    </g>
    <g id="ytick_20">
     <g id="line2d_40">
      <g>
       <use style="stroke:#000000;stroke-width:0.8;" x="144" xlink:href="#m85ea307268" y="554.27168"/>
      </g>
     </g>
     <g id="text_46">
      <!-- 8000 -->
      <g transform="translate(111.55 558.070898)scale(0.1 -0.1)">
       <use xlink:href="#DejaVuSans-56"/>
       <use x="63.623047" xlink:href="#DejaVuSans-48"/>
       <use x="127.246094" xlink:href="#DejaVuSans-48"/>
       <use x="190.869141" xlink:href="#DejaVuSans-48"/>
      </g>
     </g>
    </g>
    <g id="ytick_21">
     <g id="line2d_41">
      <g>
       <use style="stroke:#000000;stroke-width:0.8;" x="144" xlink:href="#m85ea307268" y="522.670336"/>
      </g>
     </g>
     <g id="text_47">
      <!-- 10000 -->
      <g transform="translate(105.1875 526.469554)scale(0.1 -0.1)">
       <use xlink:href="#DejaVuSans-49"/>
       <use x="63.623047" xlink:href="#DejaVuSans-48"/>
       <use x="127.246094" xlink:href="#DejaVuSans-48"/>
       <use x="190.869141" xlink:href="#DejaVuSans-48"/>
       <use x="254.492188" xlink:href="#DejaVuSans-48"/>
      </g>
     </g>
    </g>
    <g id="ytick_22">
     <g id="line2d_42">
      <g>
       <use style="stroke:#000000;stroke-width:0.8;" x="144" xlink:href="#m85ea307268" y="491.068992"/>
      </g>
     </g>
     <g id="text_48">
      <!-- 12000 -->
      <g transform="translate(105.1875 494.86821)scale(0.1 -0.1)">
       <use xlink:href="#DejaVuSans-49"/>
       <use x="63.623047" xlink:href="#DejaVuSans-50"/>
       <use x="127.246094" xlink:href="#DejaVuSans-48"/>
       <use x="190.869141" xlink:href="#DejaVuSans-48"/>
       <use x="254.492188" xlink:href="#DejaVuSans-48"/>
      </g>
     </g>
    </g>
    <g id="ytick_23">
     <g id="line2d_43">
      <g>
       <use style="stroke:#000000;stroke-width:0.8;" x="144" xlink:href="#m85ea307268" y="459.467648"/>
      </g>
     </g>
     <g id="text_49">
      <!-- 14000 -->
      <g transform="translate(105.1875 463.266866)scale(0.1 -0.1)">
       <use xlink:href="#DejaVuSans-49"/>
       <use x="63.623047" xlink:href="#DejaVuSans-52"/>
       <use x="127.246094" xlink:href="#DejaVuSans-48"/>
       <use x="190.869141" xlink:href="#DejaVuSans-48"/>
       <use x="254.492188" xlink:href="#DejaVuSans-48"/>
      </g>
     </g>
    </g>
    <g id="ytick_24">
     <g id="line2d_44">
      <g>
       <use style="stroke:#000000;stroke-width:0.8;" x="144" xlink:href="#m85ea307268" y="427.866304"/>
      </g>
     </g>
     <g id="text_50">
      <!-- 16000 -->
      <g transform="translate(105.1875 431.665522)scale(0.1 -0.1)">
       <use xlink:href="#DejaVuSans-49"/>
       <use x="63.623047" xlink:href="#DejaVuSans-54"/>
       <use x="127.246094" xlink:href="#DejaVuSans-48"/>
       <use x="190.869141" xlink:href="#DejaVuSans-48"/>
       <use x="254.492188" xlink:href="#DejaVuSans-48"/>
      </g>
     </g>
    </g>
    <g id="text_51">
     <!-- Número de indivíduos -->
     <g transform="translate(99.107812 611.864062)rotate(-90)scale(0.1 -0.1)">
      <use xlink:href="#DejaVuSans-78"/>
      <use x="74.804688" xlink:href="#DejaVuSans-250"/>
      <use x="138.183594" xlink:href="#DejaVuSans-109"/>
      <use x="235.595703" xlink:href="#DejaVuSans-101"/>
      <use x="297.119141" xlink:href="#DejaVuSans-114"/>
      <use x="335.982422" xlink:href="#DejaVuSans-111"/>
      <use x="397.164062" xlink:href="#DejaVuSans-32"/>
      <use x="428.951172" xlink:href="#DejaVuSans-100"/>
      <use x="492.427734" xlink:href="#DejaVuSans-101"/>
      <use x="553.951172" xlink:href="#DejaVuSans-32"/>
      <use x="585.738281" xlink:href="#DejaVuSans-105"/>
      <use x="613.521484" xlink:href="#DejaVuSans-110"/>
      <use x="676.900391" xlink:href="#DejaVuSans-100"/>
      <use x="740.376953" xlink:href="#DejaVuSans-105"/>
      <use x="768.160156" xlink:href="#DejaVuSans-118"/>
      <use x="827.339844" xlink:href="#DejaVuSans-237"/>
      <use x="855.123047" xlink:href="#DejaVuSans-100"/>
      <use x="918.599609" xlink:href="#DejaVuSans-117"/>
      <use x="981.978516" xlink:href="#DejaVuSans-111"/>
      <use x="1043.160156" xlink:href="#DejaVuSans-115"/>
     </g>
    </g>
   </g>
   <g id="line2d_45">
    <path clip-path="url(#p0986dce7ee)" d="M 162.446281 680.645455 
L 169.486846 680.53485 
L 172.303072 680.408444 
L 176.527412 679.981826 
L 179.343638 679.349799 
L 180.751751 679.191793 
L 183.567977 678.19635 
L 184.97609 677.422117 
L 186.384203 676.458276 
L 187.792316 675.273226 
L 190.608542 672.255298 
L 192.016655 670.485622 
L 193.424768 668.431535 
L 194.832881 666.140438 
L 196.240994 663.185712 
L 199.05722 657.860885 
L 200.465333 655.648791 
L 201.873446 652.07784 
L 203.28156 648.822901 
L 204.689673 643.561277 
L 206.097786 639.484704 
L 207.505899 636.956596 
L 208.914012 637.446417 
L 210.322125 632.927425 
L 211.730238 630.209709 
L 213.138351 628.629642 
L 214.546464 620.5713 
L 215.954577 616.652733 
L 217.36269 611.912531 
L 218.770803 610.221859 
L 220.178916 608.215174 
L 221.587029 603.854189 
L 222.995142 601.152274 
L 224.403255 597.265308 
L 225.811368 592.588309 
L 227.219481 589.665185 
L 228.627594 587.816506 
L 230.035708 586.25224 
L 231.443821 583.882139 
L 232.851934 580.911613 
L 235.66816 576.029205 
L 237.076273 574.243729 
L 238.484386 573.042878 
L 239.892499 572.189642 
L 241.300612 570.182956 
L 242.708725 570.182956 
L 244.116838 565.727167 
L 246.933064 562.014009 
L 248.341177 561.397783 
L 249.74929 561.081769 
L 251.157403 559.628108 
L 252.565516 558.411456 
L 253.973629 556.467973 
L 255.381742 556.104558 
L 256.789856 555.899149 
L 258.197969 555.251321 
L 259.606082 554.872105 
L 261.014195 554.224278 
L 262.422308 552.991825 
L 265.238534 551.064143 
L 266.646647 550.669126 
L 268.05476 550.147704 
L 270.870986 549.389272 
L 273.687212 547.508992 
L 275.095325 546.845364 
L 276.503438 546.308141 
L 277.911551 545.897324 
L 282.13589 545.375901 
L 284.952117 544.238253 
L 286.36023 543.874838 
L 289.176456 543.448219 
L 290.584569 543.290213 
L 291.992682 542.642385 
L 297.625134 541.741747 
L 301.849473 541.315129 
L 304.665699 540.446092 
L 307.481925 540.130078 
L 310.298152 540.066876 
L 317.338717 538.976629 
L 318.74683 538.976629 
L 328.603621 538.107592 
L 330.011734 538.123393 
L 337.0523 537.364961 
L 342.684752 537.206954 
L 345.500978 537.080549 
L 353.949656 536.732934 
L 356.765882 536.511724 
L 360.990221 536.40112 
L 370.847013 535.895498 
L 372.255126 535.642687 
L 373.663239 535.611086 
L 375.071352 535.389877 
L 377.887578 535.279272 
L 380.703804 535.184468 
L 391.968709 534.53664 
L 393.376822 534.315431 
L 404.641726 533.888813 
L 406.049839 533.746607 
L 410.274178 533.620201 
L 411.682291 533.383191 
L 415.90663 533.272587 
L 420.13097 533.161982 
L 424.355309 532.972374 
L 432.803987 532.529955 
L 434.2121 532.371948 
L 438.436439 532.308746 
L 445.477005 531.218499 
L 448.293231 531.076293 
L 452.51757 530.428466 
L 456.741909 530.049249 
L 458.150022 529.717435 
L 468.006813 528.358578 
L 469.414927 527.694949 
L 470.82304 527.157727 
L 472.231153 526.794311 
L 473.639266 526.257088 
L 476.455492 525.862071 
L 479.271718 524.534815 
L 480.679831 524.076595 
L 482.087944 523.302363 
L 483.496057 523.01795 
L 484.90417 522.117312 
L 489.128509 520.758454 
L 491.944735 517.851131 
L 494.760961 515.038611 
L 496.169075 514.564591 
L 497.577188 512.099686 
L 498.985301 511.341254 
L 500.393414 507.675498 
L 501.801527 505.13159 
L 503.20964 503.077502 
L 506.025866 500.991814 
L 507.433979 500.422989 
L 508.842092 494.529339 
L 513.066431 484.68552 
L 514.474544 482.994848 
L 515.882657 482.015207 
L 517.29077 477.907032 
L 518.698883 473.087827 
L 521.515109 464.808275 
L 522.923223 460.763303 
L 524.331336 458.503807 
L 525.739449 456.955341 
L 527.147562 452.199338 
L 529.963788 440.348834 
L 531.371901 433.554545 
L 531.371901 433.554545 
" style="fill:none;stroke:#1f77b4;stroke-linecap:square;stroke-width:1.5;"/>
   </g>
   <g id="patch_13">
    <path d="M 144 693 
L 144 421.2 
" style="fill:none;stroke:#000000;stroke-linecap:square;stroke-linejoin:miter;stroke-width:0.8;"/>
   </g>
   <g id="patch_14">
    <path d="M 549.818182 693 
L 549.818182 421.2 
" style="fill:none;stroke:#000000;stroke-linecap:square;stroke-linejoin:miter;stroke-width:0.8;"/>
   </g>
   <g id="patch_15">
    <path d="M 144 693 
L 549.818182 693 
" style="fill:none;stroke:#000000;stroke-linecap:square;stroke-linejoin:miter;stroke-width:0.8;"/>
   </g>
   <g id="patch_16">
    <path d="M 144 421.2 
L 549.818182 421.2 
" style="fill:none;stroke:#000000;stroke-linecap:square;stroke-linejoin:miter;stroke-width:0.8;"/>
   </g>
   <g id="text_52">
    <!-- Curva de óbitos acumulados -->
    <defs>
     <path d="M 30.609375 48.390625 
Q 23.390625 48.390625 19.1875 42.75 
Q 14.984375 37.109375 14.984375 27.296875 
Q 14.984375 17.484375 19.15625 11.84375 
Q 23.34375 6.203125 30.609375 6.203125 
Q 37.796875 6.203125 41.984375 11.859375 
Q 46.1875 17.53125 46.1875 27.296875 
Q 46.1875 37.015625 41.984375 42.703125 
Q 37.796875 48.390625 30.609375 48.390625 
z
M 30.609375 56 
Q 42.328125 56 49.015625 48.375 
Q 55.71875 40.765625 55.71875 27.296875 
Q 55.71875 13.875 49.015625 6.21875 
Q 42.328125 -1.421875 30.609375 -1.421875 
Q 18.84375 -1.421875 12.171875 6.21875 
Q 5.515625 13.875 5.515625 27.296875 
Q 5.515625 40.765625 12.171875 48.375 
Q 18.84375 56 30.609375 56 
z
M 37.40625 79.984375 
L 47.125 79.984375 
L 31.21875 61.625 
L 23.734375 61.625 
z
" id="DejaVuSans-243"/>
     <path d="M 48.6875 27.296875 
Q 48.6875 37.203125 44.609375 42.84375 
Q 40.53125 48.484375 33.40625 48.484375 
Q 26.265625 48.484375 22.1875 42.84375 
Q 18.109375 37.203125 18.109375 27.296875 
Q 18.109375 17.390625 22.1875 11.75 
Q 26.265625 6.109375 33.40625 6.109375 
Q 40.53125 6.109375 44.609375 11.75 
Q 48.6875 17.390625 48.6875 27.296875 
z
M 18.109375 46.390625 
Q 20.953125 51.265625 25.265625 53.625 
Q 29.59375 56 35.59375 56 
Q 45.5625 56 51.78125 48.09375 
Q 58.015625 40.1875 58.015625 27.296875 
Q 58.015625 14.40625 51.78125 6.484375 
Q 45.5625 -1.421875 35.59375 -1.421875 
Q 29.59375 -1.421875 25.265625 0.953125 
Q 20.953125 3.328125 18.109375 8.203125 
L 18.109375 0 
L 9.078125 0 
L 9.078125 75.984375 
L 18.109375 75.984375 
z
" id="DejaVuSans-98"/>
    </defs>
    <g transform="translate(261.329403 415.2)scale(0.12 -0.12)">
     <use xlink:href="#DejaVuSans-67"/>
     <use x="69.824219" xlink:href="#DejaVuSans-117"/>
     <use x="133.203125" xlink:href="#DejaVuSans-114"/>
     <use x="174.316406" xlink:href="#DejaVuSans-118"/>
     <use x="233.496094" xlink:href="#DejaVuSans-97"/>
     <use x="294.775391" xlink:href="#DejaVuSans-32"/>
     <use x="326.5625" xlink:href="#DejaVuSans-100"/>
     <use x="390.039062" xlink:href="#DejaVuSans-101"/>
     <use x="451.5625" xlink:href="#DejaVuSans-32"/>
     <use x="483.349609" xlink:href="#DejaVuSans-243"/>
     <use x="544.53125" xlink:href="#DejaVuSans-98"/>
     <use x="608.007812" xlink:href="#DejaVuSans-105"/>
     <use x="635.791016" xlink:href="#DejaVuSans-116"/>
     <use x="675" xlink:href="#DejaVuSans-111"/>
     <use x="736.181641" xlink:href="#DejaVuSans-115"/>
     <use x="788.28125" xlink:href="#DejaVuSans-32"/>
     <use x="820.068359" xlink:href="#DejaVuSans-97"/>
     <use x="881.347656" xlink:href="#DejaVuSans-99"/>
     <use x="936.328125" xlink:href="#DejaVuSans-117"/>
     <use x="999.707031" xlink:href="#DejaVuSans-109"/>
     <use x="1097.119141" xlink:href="#DejaVuSans-117"/>
     <use x="1160.498047" xlink:href="#DejaVuSans-108"/>
     <use x="1188.28125" xlink:href="#DejaVuSans-97"/>
     <use x="1249.560547" xlink:href="#DejaVuSans-100"/>
     <use x="1313.037109" xlink:href="#DejaVuSans-111"/>
     <use x="1374.21875" xlink:href="#DejaVuSans-115"/>
    </g>
   </g>
  </g>
  <g id="axes_4">
   <g id="patch_17">
    <path d="M 630.981818 693 
L 1036.8 693 
L 1036.8 421.2 
L 630.981818 421.2 
z
" style="fill:#ffffff;"/>
   </g>
   <g id="matplotlib.axis_7">
    <g id="xtick_19">
     <g id="line2d_46">
      <g>
       <use style="stroke:#000000;stroke-width:0.8;" x="648.210523" xlink:href="#mdf925a498d" y="693"/>
      </g>
     </g>
     <g id="text_53">
      <!-- 27-01 -->
      <g transform="translate(633.681617 707.598437)scale(0.1 -0.1)">
       <use xlink:href="#DejaVuSans-50"/>
       <use x="63.623047" xlink:href="#DejaVuSans-55"/>
       <use x="127.246094" xlink:href="#DejaVuSans-45"/>
       <use x="163.330078" xlink:href="#DejaVuSans-48"/>
       <use x="226.953125" xlink:href="#DejaVuSans-49"/>
      </g>
     </g>
    </g>
    <g id="xtick_20">
     <g id="line2d_47">
      <g>
       <use style="stroke:#000000;stroke-width:0.8;" x="721.265101" xlink:href="#mdf925a498d" y="693"/>
      </g>
     </g>
     <g id="text_54">
      <!-- 27-03 -->
      <g transform="translate(706.736195 707.598437)scale(0.1 -0.1)">
       <use xlink:href="#DejaVuSans-50"/>
       <use x="63.623047" xlink:href="#DejaVuSans-55"/>
       <use x="127.246094" xlink:href="#DejaVuSans-45"/>
       <use x="163.330078" xlink:href="#DejaVuSans-48"/>
       <use x="226.953125" xlink:href="#DejaVuSans-51"/>
      </g>
     </g>
    </g>
    <g id="xtick_21">
     <g id="line2d_48">
      <g>
       <use style="stroke:#000000;stroke-width:0.8;" x="794.319679" xlink:href="#mdf925a498d" y="693"/>
      </g>
     </g>
     <g id="text_55">
      <!-- 26-05 -->
      <g transform="translate(779.790773 707.598437)scale(0.1 -0.1)">
       <use xlink:href="#DejaVuSans-50"/>
       <use x="63.623047" xlink:href="#DejaVuSans-54"/>
       <use x="127.246094" xlink:href="#DejaVuSans-45"/>
       <use x="163.330078" xlink:href="#DejaVuSans-48"/>
       <use x="226.953125" xlink:href="#DejaVuSans-53"/>
      </g>
     </g>
    </g>
    <g id="xtick_22">
     <g id="line2d_49">
      <g>
       <use style="stroke:#000000;stroke-width:0.8;" x="867.374257" xlink:href="#mdf925a498d" y="693"/>
      </g>
     </g>
     <g id="text_56">
      <!-- 25-07 -->
      <g transform="translate(852.845351 707.598437)scale(0.1 -0.1)">
       <use xlink:href="#DejaVuSans-50"/>
       <use x="63.623047" xlink:href="#DejaVuSans-53"/>
       <use x="127.246094" xlink:href="#DejaVuSans-45"/>
       <use x="163.330078" xlink:href="#DejaVuSans-48"/>
       <use x="226.953125" xlink:href="#DejaVuSans-55"/>
      </g>
     </g>
    </g>
    <g id="xtick_23">
     <g id="line2d_50">
      <g>
       <use style="stroke:#000000;stroke-width:0.8;" x="940.428836" xlink:href="#mdf925a498d" y="693"/>
      </g>
     </g>
     <g id="text_57">
      <!-- 23-09 -->
      <g transform="translate(925.899929 707.598437)scale(0.1 -0.1)">
       <use xlink:href="#DejaVuSans-50"/>
       <use x="63.623047" xlink:href="#DejaVuSans-51"/>
       <use x="127.246094" xlink:href="#DejaVuSans-45"/>
       <use x="163.330078" xlink:href="#DejaVuSans-48"/>
       <use x="226.953125" xlink:href="#DejaVuSans-57"/>
      </g>
     </g>
    </g>
    <g id="xtick_24">
     <g id="line2d_51">
      <g>
       <use style="stroke:#000000;stroke-width:0.8;" x="1013.483414" xlink:href="#mdf925a498d" y="693"/>
      </g>
     </g>
     <g id="text_58">
      <!-- 26-11 -->
      <g transform="translate(998.954508 707.598437)scale(0.1 -0.1)">
       <use xlink:href="#DejaVuSans-50"/>
       <use x="63.623047" xlink:href="#DejaVuSans-54"/>
       <use x="127.246094" xlink:href="#DejaVuSans-45"/>
       <use x="163.330078" xlink:href="#DejaVuSans-49"/>
       <use x="226.953125" xlink:href="#DejaVuSans-49"/>
      </g>
     </g>
    </g>
    <g id="text_59">
     <!-- Data (2020) -->
     <g transform="translate(803.737003 721.276562)scale(0.1 -0.1)">
      <use xlink:href="#DejaVuSans-68"/>
      <use x="77.001953" xlink:href="#DejaVuSans-97"/>
      <use x="138.28125" xlink:href="#DejaVuSans-116"/>
      <use x="177.490234" xlink:href="#DejaVuSans-97"/>
      <use x="238.769531" xlink:href="#DejaVuSans-32"/>
      <use x="270.556641" xlink:href="#DejaVuSans-40"/>
      <use x="309.570312" xlink:href="#DejaVuSans-50"/>
      <use x="373.193359" xlink:href="#DejaVuSans-48"/>
      <use x="436.816406" xlink:href="#DejaVuSans-50"/>
      <use x="500.439453" xlink:href="#DejaVuSans-48"/>
      <use x="564.0625" xlink:href="#DejaVuSans-41"/>
     </g>
    </g>
   </g>
   <g id="matplotlib.axis_8">
    <g id="ytick_25">
     <g id="line2d_52">
      <g>
       <use style="stroke:#000000;stroke-width:0.8;" x="630.981818" xlink:href="#m85ea307268" y="680.645455"/>
      </g>
     </g>
     <g id="text_60">
      <!-- 0 -->
      <g transform="translate(617.619318 684.444673)scale(0.1 -0.1)">
       <use xlink:href="#DejaVuSans-48"/>
      </g>
     </g>
    </g>
    <g id="ytick_26">
     <g id="line2d_53">
      <g>
       <use style="stroke:#000000;stroke-width:0.8;" x="630.981818" xlink:href="#m85ea307268" y="636.923539"/>
      </g>
     </g>
     <g id="text_61">
      <!-- 50 -->
      <g transform="translate(611.256818 640.722758)scale(0.1 -0.1)">
       <use xlink:href="#DejaVuSans-53"/>
       <use x="63.623047" xlink:href="#DejaVuSans-48"/>
      </g>
     </g>
    </g>
    <g id="ytick_27">
     <g id="line2d_54">
      <g>
       <use style="stroke:#000000;stroke-width:0.8;" x="630.981818" xlink:href="#m85ea307268" y="593.201623"/>
      </g>
     </g>
     <g id="text_62">
      <!-- 100 -->
      <g transform="translate(604.894318 597.000842)scale(0.1 -0.1)">
       <use xlink:href="#DejaVuSans-49"/>
       <use x="63.623047" xlink:href="#DejaVuSans-48"/>
       <use x="127.246094" xlink:href="#DejaVuSans-48"/>
      </g>
     </g>
    </g>
    <g id="ytick_28">
     <g id="line2d_55">
      <g>
       <use style="stroke:#000000;stroke-width:0.8;" x="630.981818" xlink:href="#m85ea307268" y="549.479707"/>
      </g>
     </g>
     <g id="text_63">
      <!-- 150 -->
      <g transform="translate(604.894318 553.278926)scale(0.1 -0.1)">
       <use xlink:href="#DejaVuSans-49"/>
       <use x="63.623047" xlink:href="#DejaVuSans-53"/>
       <use x="127.246094" xlink:href="#DejaVuSans-48"/>
      </g>
     </g>
    </g>
    <g id="ytick_29">
     <g id="line2d_56">
      <g>
       <use style="stroke:#000000;stroke-width:0.8;" x="630.981818" xlink:href="#m85ea307268" y="505.757792"/>
      </g>
     </g>
     <g id="text_64">
      <!-- 200 -->
      <g transform="translate(604.894318 509.55701)scale(0.1 -0.1)">
       <use xlink:href="#DejaVuSans-50"/>
       <use x="63.623047" xlink:href="#DejaVuSans-48"/>
       <use x="127.246094" xlink:href="#DejaVuSans-48"/>
      </g>
     </g>
    </g>
    <g id="ytick_30">
     <g id="line2d_57">
      <g>
       <use style="stroke:#000000;stroke-width:0.8;" x="630.981818" xlink:href="#m85ea307268" y="462.035876"/>
      </g>
     </g>
     <g id="text_65">
      <!-- 250 -->
      <g transform="translate(604.894318 465.835095)scale(0.1 -0.1)">
       <use xlink:href="#DejaVuSans-50"/>
       <use x="63.623047" xlink:href="#DejaVuSans-53"/>
       <use x="127.246094" xlink:href="#DejaVuSans-48"/>
      </g>
     </g>
    </g>
    <g id="text_66">
     <!-- Número de indivíduos -->
     <g transform="translate(598.814631 611.864062)rotate(-90)scale(0.1 -0.1)">
      <use xlink:href="#DejaVuSans-78"/>
      <use x="74.804688" xlink:href="#DejaVuSans-250"/>
      <use x="138.183594" xlink:href="#DejaVuSans-109"/>
      <use x="235.595703" xlink:href="#DejaVuSans-101"/>
      <use x="297.119141" xlink:href="#DejaVuSans-114"/>
      <use x="335.982422" xlink:href="#DejaVuSans-111"/>
      <use x="397.164062" xlink:href="#DejaVuSans-32"/>
      <use x="428.951172" xlink:href="#DejaVuSans-100"/>
      <use x="492.427734" xlink:href="#DejaVuSans-101"/>
      <use x="553.951172" xlink:href="#DejaVuSans-32"/>
      <use x="585.738281" xlink:href="#DejaVuSans-105"/>
      <use x="613.521484" xlink:href="#DejaVuSans-110"/>
      <use x="676.900391" xlink:href="#DejaVuSans-100"/>
      <use x="740.376953" xlink:href="#DejaVuSans-105"/>
      <use x="768.160156" xlink:href="#DejaVuSans-118"/>
      <use x="827.339844" xlink:href="#DejaVuSans-237"/>
      <use x="855.123047" xlink:href="#DejaVuSans-100"/>
      <use x="918.599609" xlink:href="#DejaVuSans-117"/>
      <use x="981.978516" xlink:href="#DejaVuSans-111"/>
      <use x="1043.160156" xlink:href="#DejaVuSans-115"/>
     </g>
    </g>
   </g>
   <g id="line2d_58">
    <path clip-path="url(#pbe2f47ff63)" d="M 649.428099 680.645455 
L 698.131151 680.645455 
L 699.348728 680.395365 
L 700.566304 680.395365 
L 701.78388 680.270321 
L 703.001457 680.270321 
L 704.219033 679.771016 
L 706.654185 679.271712 
L 707.871762 678.771533 
L 709.089338 677.897095 
L 710.306914 677.522835 
L 711.524491 675.523869 
L 712.742067 673.150644 
L 713.959643 671.276722 
L 715.17722 670.277239 
L 716.394796 667.403835 
L 717.612372 664.031127 
L 720.047525 652.788473 
L 721.265101 646.292271 
L 722.482677 637.048583 
L 727.352983 591.452746 
L 728.570559 575.712857 
L 729.788135 564.095069 
L 731.005711 554.351203 
L 732.223288 549.354663 
L 733.440864 535.11356 
L 734.65844 525.619783 
L 735.876017 502.134994 
L 737.093593 493.265566 
L 738.311169 494.265049 
L 739.528746 519.2495 
L 740.746322 501.010466 
L 741.963898 507.756758 
L 743.181475 520.998377 
L 744.399051 498.88733 
L 745.616627 500.136028 
L 748.05178 465.408584 
L 749.269356 485.270576 
L 750.486932 472.279046 
L 751.704509 463.409618 
L 752.922085 496.389059 
L 754.139661 490.393036 
L 755.357238 504.758309 
L 756.574814 503.509611 
L 757.79239 507.007364 
L 759.009966 522.747254 
L 760.227543 520.623243 
L 761.445119 532.24103 
L 762.662695 549.729797 
L 763.880272 558.723395 
L 765.097848 563.845854 
L 766.315424 569.466744 
L 767.533001 572.340148 
L 768.750577 595.824938 
L 769.968153 579.709914 
L 771.185729 584.582285 
L 772.403306 583.957936 
L 774.838458 592.826489 
L 776.056035 597.198681 
L 777.273611 587.579859 
L 778.491187 607.442725 
L 779.708764 619.184683 
L 780.92634 632.301258 
L 782.143916 632.052043 
L 783.361493 631.551864 
L 784.579069 637.923022 
L 785.796645 637.797977 
L 787.014221 645.292788 
L 788.231798 640.796426 
L 789.449374 639.296764 
L 790.66695 640.296247 
L 791.884527 640.546337 
L 794.319679 644.294179 
L 795.537256 645.168618 
L 796.754832 647.291754 
L 797.972408 646.167226 
L 799.189984 647.041665 
L 801.625137 649.915069 
L 802.842713 656.785531 
L 804.06029 658.909541 
L 805.277866 660.034069 
L 807.713019 662.781554 
L 808.930595 662.532339 
L 810.148171 663.156688 
L 811.365747 659.034586 
L 812.583324 661.907116 
L 815.018476 665.03061 
L 817.453629 666.155137 
L 818.671205 666.654442 
L 819.888782 670.152195 
L 821.106358 668.278273 
L 822.323934 667.778969 
L 823.541511 667.653925 
L 824.759087 667.904014 
L 825.976663 668.902622 
L 827.194239 669.152712 
L 828.411816 668.902622 
L 829.629392 671.026633 
L 830.846968 672.52542 
L 832.064545 670.901588 
L 833.282121 671.525937 
L 834.499697 671.525937 
L 835.717274 671.026633 
L 836.93485 671.151678 
L 838.152426 672.276205 
L 839.370002 672.400376 
L 840.587579 675.023691 
L 841.805155 674.149252 
L 843.022731 673.774993 
L 844.240308 674.89952 
L 845.457884 675.398825 
L 846.67546 674.274297 
L 847.893037 674.274297 
L 849.110613 674.025082 
L 850.328189 674.399342 
L 851.545765 674.649431 
L 852.763342 674.149252 
L 853.980918 674.89952 
L 855.198494 676.398308 
L 856.416071 676.897612 
L 857.633647 677.522835 
L 858.851223 678.02214 
L 860.0688 678.02214 
L 861.286376 678.147184 
L 864.939105 677.77205 
L 866.156681 676.648397 
L 867.374257 676.523352 
L 869.80941 676.772567 
L 873.462139 676.398308 
L 874.679715 677.272746 
L 875.897292 676.897612 
L 877.114868 676.897612 
L 878.332444 677.022657 
L 879.55002 676.648397 
L 880.767597 675.148735 
L 881.985173 676.023174 
L 883.202749 674.649431 
L 884.420326 674.774476 
L 886.855478 674.524386 
L 888.073055 675.023691 
L 889.290631 676.398308 
L 890.508207 676.148218 
L 894.160936 676.523352 
L 896.596089 676.523352 
L 897.813665 676.148218 
L 899.031241 674.89952 
L 900.248818 676.148218 
L 901.466394 676.023174 
L 902.68397 675.648914 
L 905.119123 675.648914 
L 906.336699 676.148218 
L 907.554275 677.272746 
L 908.771852 677.647006 
L 909.989428 677.272746 
L 911.207004 677.522835 
L 912.424581 677.272746 
L 913.642157 677.397791 
L 914.859733 676.023174 
L 916.07731 676.648397 
L 917.294886 676.023174 
L 918.512462 676.897612 
L 919.730038 676.897612 
L 920.947615 677.147701 
L 922.165191 677.022657 
L 923.382767 678.147184 
L 924.600344 677.77205 
L 925.81792 678.02214 
L 927.035496 677.77205 
L 929.470649 677.522835 
L 930.688225 676.772567 
L 933.123378 676.772567 
L 934.340954 675.898129 
L 935.55853 676.148218 
L 936.776107 676.148218 
L 937.993683 676.398308 
L 939.211259 675.898129 
L 940.428836 674.399342 
L 941.646412 673.150644 
L 944.081565 671.776027 
L 945.299141 671.401767 
L 946.516717 670.901588 
L 947.734293 670.901588 
L 948.95187 671.650982 
L 950.169446 671.525937 
L 951.387022 672.276205 
L 952.604599 671.650982 
L 953.822175 672.026116 
L 955.039751 669.902105 
L 956.257328 670.277239 
L 957.474904 669.777061 
L 958.69248 670.02715 
L 959.910056 670.527329 
L 961.127633 669.527846 
L 962.345209 669.027667 
L 963.562785 669.902105 
L 964.780362 666.155137 
L 965.997938 663.906082 
L 967.215514 662.532339 
L 968.433091 658.909541 
L 969.650667 660.034069 
L 970.868243 659.159631 
L 972.085819 655.411788 
L 973.303396 655.661877 
L 974.520972 656.286226 
L 975.738548 653.038563 
L 976.956125 655.036654 
L 978.173701 649.415765 
L 979.391277 647.666888 
L 980.608854 649.540809 
L 981.82643 650.789507 
L 983.044006 642.295213 
L 984.261583 637.547888 
L 985.479159 629.053594 
L 986.696735 624.681402 
L 987.914311 624.306268 
L 989.131888 608.442208 
L 990.349464 606.193153 
L 991.56704 589.328736 
L 992.784617 580.085048 
L 994.002193 574.588329 
L 995.219769 577.836867 
L 996.437346 573.339631 
L 997.654922 588.330127 
L 998.872498 547.730831 
L 1000.090074 550.104056 
L 1002.525227 535.238605 
L 1003.742803 530.11702 
L 1004.96038 530.617198 
L 1006.177956 502.635172 
L 1007.395532 511.129466 
L 1008.613109 506.257096 
L 1009.830685 500.011857 
L 1011.048261 491.516689 
L 1013.483414 482.523091 
L 1014.70099 477.400631 
L 1015.918566 469.031382 
L 1017.136143 453.291493 
L 1018.353719 433.554545 
L 1018.353719 433.554545 
" style="fill:none;stroke:#1f77b4;stroke-linecap:square;stroke-width:1.5;"/>
   </g>
   <g id="patch_18">
    <path d="M 630.981818 693 
L 630.981818 421.2 
" style="fill:none;stroke:#000000;stroke-linecap:square;stroke-linejoin:miter;stroke-width:0.8;"/>
   </g>
   <g id="patch_19">
    <path d="M 1036.8 693 
L 1036.8 421.2 
" style="fill:none;stroke:#000000;stroke-linecap:square;stroke-linejoin:miter;stroke-width:0.8;"/>
   </g>
   <g id="patch_20">
    <path d="M 630.981818 693 
L 1036.8 693 
" style="fill:none;stroke:#000000;stroke-linecap:square;stroke-linejoin:miter;stroke-width:0.8;"/>
   </g>
   <g id="patch_21">
    <path d="M 630.981818 421.2 
L 1036.8 421.2 
" style="fill:none;stroke:#000000;stroke-linecap:square;stroke-linejoin:miter;stroke-width:0.8;"/>
   </g>
   <g id="text_67">
    <!-- Novos óbitos -->
    <g transform="translate(795.179659 415.2)scale(0.12 -0.12)">
     <use xlink:href="#DejaVuSans-78"/>
     <use x="74.804688" xlink:href="#DejaVuSans-111"/>
     <use x="135.986328" xlink:href="#DejaVuSans-118"/>
     <use x="195.166016" xlink:href="#DejaVuSans-111"/>
     <use x="256.347656" xlink:href="#DejaVuSans-115"/>
     <use x="308.447266" xlink:href="#DejaVuSans-32"/>
     <use x="340.234375" xlink:href="#DejaVuSans-243"/>
     <use x="401.416016" xlink:href="#DejaVuSans-98"/>
     <use x="464.892578" xlink:href="#DejaVuSans-105"/>
     <use x="492.675781" xlink:href="#DejaVuSans-116"/>
     <use x="531.884766" xlink:href="#DejaVuSans-111"/>
     <use x="593.066406" xlink:href="#DejaVuSans-115"/>
    </g>
   </g>
  </g>
 </g>
 <defs>
  <clipPath id="p1b73c9481d">
   <rect height="271.8" width="405.818182" x="144" y="95.04"/>
  </clipPath>
  <clipPath id="p4c0d727b10">
   <rect height="271.8" width="405.818182" x="630.981818" y="95.04"/>
  </clipPath>
  <clipPath id="p0986dce7ee">
   <rect height="271.8" width="405.818182" x="144" y="421.2"/>
  </clipPath>
  <clipPath id="pbe2f47ff63">
   <rect height="271.8" width="405.818182" x="630.981818" y="421.2"/>
  </clipPath>
 </defs>
</svg>
